# Blender 4.5.1 LTS
# www.blender.org
mtllib spear.mtl
o Cube
o Cercle
v -0.007244 -0.254863 0.000000
v -0.006414 -0.254863 0.003366
v -0.004115 -0.254863 0.005962
v -0.000873 -0.254863 0.007191
v 0.002569 -0.254863 0.006773
v 0.005422 -0.254863 0.004804
v 0.007034 -0.254863 0.001734
v 0.007034 -0.254863 -0.001734
v 0.005422 -0.254863 -0.004804
v 0.002569 -0.254863 -0.006773
v -0.000873 -0.254863 -0.007191
v -0.004115 -0.254863 -0.005962
v -0.006414 -0.254863 -0.003366
v -0.007244 0.074743 0.000000
v -0.006414 0.074743 0.003366
v -0.004115 0.074743 0.005962
v -0.000873 0.074743 0.007191
v 0.002569 0.074743 0.006773
v 0.005422 0.074743 0.004804
v 0.007034 0.074743 0.001734
v 0.007034 0.074743 -0.001734
v 0.005422 0.074743 -0.004804
v 0.002569 0.074743 -0.006773
v -0.000873 0.074743 -0.007191
v -0.004115 0.074743 -0.005962
v -0.006414 0.074743 -0.003366
v 0.005109 0.056822 -0.003729
v 0.001007 0.076765 -0.003616
v -0.001169 0.056231 -0.005758
v -0.002371 0.077914 -0.008908
v 0.007904 0.058230 -0.011243
v 0.006343 0.076235 -0.014394
v 0.001998 0.056034 -0.012472
v 0.001242 0.076122 -0.016706
v 0.009419 0.029288 0.009196
v 0.003856 0.065342 -0.004843
v -0.000167 0.077905 -0.007032
v -0.001166 0.062863 -0.006616
v -0.000750 0.054553 -0.009168
v -0.001365 0.075863 -0.012721
v 0.003775 0.064231 -0.014442
v 0.005599 0.053136 -0.010901
v 0.003481 0.076030 -0.016097
v 0.006405 0.068413 -0.012726
v 0.007365 0.056332 -0.006880
v 0.005958 0.076071 -0.011003
v 0.000876 0.061811 -0.003413
v 0.000189 0.064056 -0.011131
v 0.005392 0.067480 -0.014998
v 0.007387 0.065019 -0.009005
v 0.009487 0.032543 0.007144
v -0.013645 0.103265 -0.000296
v -0.018775 0.103693 -0.005721
v -0.020061 0.102259 -0.005767
v -0.019717 0.102126 -0.007296
v -0.016013 0.103620 -0.013700
v -0.014023 0.102830 -0.010299
v -0.011047 0.103799 -0.007218
v -0.012644 0.105609 -0.004659
v -0.016862 0.112876 0.010111
v -0.020715 0.114347 0.007172
v -0.021650 0.114823 0.006304
v -0.020881 0.115999 0.004310
v -0.016961 0.119134 -0.000525
v -0.013963 0.118881 -0.000863
v -0.011843 0.116171 0.004565
v -0.014378 0.116414 0.007915
v -0.004725 0.133542 0.011494
v -0.008775 0.134163 0.010769
v -0.010768 0.134618 0.009496
v -0.010192 0.135445 0.007287
v -0.007431 0.137164 0.005263
v -0.004854 0.137183 0.004731
v -0.000937 0.135788 0.006526
v 0.000445 0.135546 0.010524
v -0.000092 0.153178 0.012729
v -0.004313 0.155650 0.011897
v -0.006618 0.155070 0.009431
v -0.006308 0.155291 0.005174
v -0.003847 0.159292 0.005356
v -0.002688 0.160042 0.006321
v -0.000476 0.157514 0.005764
v 0.004207 0.159907 0.012953
v -0.015956 0.205865 0.011443
v -0.018404 0.209774 0.010593
v -0.019678 0.209748 0.007356
v -0.017538 0.210561 0.005324
v -0.013269 0.212668 0.001980
v -0.012328 0.213042 0.004079
v -0.010881 0.210658 0.006529
v -0.009403 0.211433 0.011341
v -0.014545 0.213218 0.009398
v -0.033460 0.073828 0.004327
v -0.008531 0.137262 -0.003408
v -0.003750 0.134670 0.001985
v -0.009061 0.137435 0.003162
v 0.024098 0.076041 -0.000704
v 0.013079 0.075964 0.003612
v 0.026648 0.181953 -0.000914
v -0.029886 0.196654 -0.002775
v 0.024006 0.075964 -0.001665
v 0.012969 0.075871 -0.003827
v 0.026556 0.181876 -0.001875
v -0.022312 0.224482 0.010608
v -0.029796 0.196741 0.000171
v -0.029266 0.196568 -0.006399
v 0.023396 0.186808 -0.000842
v 0.023290 0.186719 -0.001951
v -0.009151 0.137349 0.000216
v -0.017113 0.227167 0.000546
v -0.037189 0.203525 -0.002303
v -0.013436 0.101938 -0.000040
v -0.044084 0.210755 -0.001068
v -0.044646 0.210340 0.002028
v -0.043823 0.210963 -0.002013
v -0.044815 0.210318 -0.004876
v 0.019083 0.199435 -0.000722
v 0.021080 0.191637 -0.000872
v 0.019343 0.199643 -0.001667
v 0.021061 0.191381 -0.001930
v -0.007708 0.234496 0.010045
v -0.016788 0.232185 0.010915
v -0.013108 0.214629 0.012935
v -0.024182 0.213577 0.012375
v -0.004715 0.240728 0.000168
v -0.015842 0.230716 -0.000589
v -0.012112 0.213168 0.004589
v -0.023580 0.210998 0.002103
v -0.011545 0.218466 0.012569
v -0.011062 0.225275 0.011267
v -0.009169 0.230955 0.010563
v -0.010199 0.237359 0.012269
v -0.012812 0.235966 0.010728
v -0.014870 0.233794 0.010741
v -0.019933 0.228559 0.010496
v -0.025938 0.221261 0.010654
v -0.026836 0.216500 0.010954
v -0.021454 0.213304 0.012843
v -0.018481 0.213236 0.013644
v -0.015439 0.213693 0.013646
v -0.024419 0.212270 0.010288
v -0.024095 0.211989 0.007697
v -0.024714 0.210052 0.004780
v -0.020304 0.211597 0.003223
v -0.017232 0.211395 0.003183
v -0.014255 0.211960 0.003740
v -0.008099 0.229545 0.002201
v -0.010031 0.223859 0.002905
v -0.010554 0.216910 0.004017
v -0.026303 0.214663 0.002158
v -0.024942 0.219930 0.001291
v -0.018955 0.227298 0.000434
v -0.013590 0.232563 0.000062
v -0.011241 0.234713 0.000244
v -0.007830 0.238470 -0.001509
v -0.004432 0.244690 0.007350
v -0.003749 0.243342 0.004786
v -0.003661 0.241625 0.002395
v -0.015237 0.232222 0.001484
v -0.015421 0.233382 0.005335
v -0.015717 0.232855 0.008942
v -0.011921 0.231154 0.011827
v -0.014556 0.230491 0.012447
v -0.016482 0.230223 0.011739
v -0.013166 0.226707 0.013488
v -0.016237 0.225153 0.013852
v -0.022996 0.220063 0.010754
v -0.014239 0.220333 0.014293
v -0.017552 0.219209 0.013808
v -0.021610 0.216990 0.012321
v -0.015724 0.210356 0.011842
v -0.019129 0.209324 0.011695
v -0.022767 0.210927 0.010041
v -0.015500 0.208855 0.009290
v -0.019194 0.207430 0.009086
v -0.022638 0.209751 0.008263
v -0.015075 0.209402 0.006412
v -0.018465 0.208332 0.006096
v -0.022318 0.210224 0.006215
v -0.012602 0.217835 0.001336
v -0.016066 0.216993 0.001456
v -0.020549 0.215137 0.002406
v -0.011598 0.224364 0.000275
v -0.014371 0.222848 -0.000200
v -0.020393 0.224914 0.010604
v -0.010274 0.229454 0.000695
v -0.012866 0.228622 0.000082
v -0.015190 0.228481 -0.000002
v -0.007704 0.242401 0.002278
v -0.010565 0.238825 0.001987
v -0.012648 0.235785 0.001401
v -0.008000 0.245127 0.004155
v -0.010752 0.240826 0.004948
v -0.012801 0.237608 0.005242
v -0.008805 0.244549 0.006691
v -0.011667 0.240631 0.008104
v -0.013708 0.236545 0.008771
v -0.011064 0.223628 0.008409
v -0.010931 0.223548 0.007217
v -0.010758 0.223379 0.005673
v -0.007929 0.231031 0.007572
v -0.007204 0.232527 0.006061
v -0.007866 0.230977 0.004796
v -0.028073 0.215207 0.004317
v -0.026646 0.217350 0.006981
v -0.028267 0.215929 0.009184
v -0.026688 0.220683 0.003411
v -0.025117 0.224919 0.005752
v -0.026957 0.221217 0.008606
v -0.019553 0.228948 0.002001
v -0.020225 0.230017 0.005195
v -0.020118 0.229926 0.008594
v -0.036190 0.214621 0.010301
v -0.032207 0.211808 0.011238
v -0.030806 0.210674 0.004328
v -0.035752 0.212916 0.003213
v -0.031541 0.209668 0.006883
v -0.036673 0.211960 0.005746
v -0.032183 0.209742 0.009043
v -0.036420 0.212898 0.007497
v -0.042473 0.198426 0.008378
v -0.042069 0.198140 0.008473
v -0.041841 0.197946 0.007286
v -0.042343 0.198173 0.007173
v -0.041915 0.197843 0.007546
v -0.042437 0.198076 0.007430
v -0.042066 0.197930 0.008250
v -0.042497 0.198251 0.008093
v -0.019441 0.227114 0.010693
v -0.022617 0.222159 0.010657
v -0.024276 0.218324 0.010912
v -0.024665 0.216297 0.002810
v -0.021823 0.220736 0.001890
v -0.018576 0.225804 0.000774
v -0.015544 0.229079 0.012460
v -0.017195 0.228707 0.011072
v -0.016857 0.224659 0.012953
v -0.017386 0.223477 0.007880
v -0.018194 0.220524 0.013002
v -0.020552 0.218958 0.011528
v -0.016761 0.218503 0.001599
v -0.019546 0.217363 0.002917
v -0.015292 0.222584 0.000790
v -0.016904 0.223819 0.006422
v -0.013954 0.227236 0.000353
v -0.016080 0.227054 0.000933
v -0.022636 0.218428 0.002520
v -0.019537 0.223653 0.001544
v -0.016485 0.228591 0.011906
v -0.016173 0.226995 0.012541
v -0.017263 0.227649 0.009440
v -0.017925 0.224541 0.012191
v -0.017868 0.222158 0.012716
v -0.019132 0.219691 0.009467
v -0.019140 0.220361 0.012426
v -0.018221 0.227232 0.010742
v -0.020444 0.222583 0.010294
v -0.022063 0.219135 0.010992
v -0.017799 0.218451 0.001957
v -0.016412 0.220254 0.001428
v -0.018351 0.219027 0.005241
v -0.016458 0.222799 0.001699
v -0.014564 0.224977 0.000596
v -0.016328 0.226824 0.003202
v -0.015017 0.226926 0.000693
v -0.021633 0.217464 0.002952
v -0.019533 0.221297 0.002744
v -0.017433 0.225774 0.001118
v -0.018214 0.224297 0.002069
v -0.020541 0.218981 0.003324
v -0.015718 0.224791 0.001483
v -0.017185 0.220090 0.001967
v -0.021193 0.220259 0.010456
v -0.019101 0.225472 0.010416
v -0.018517 0.221591 0.011986
v -0.017111 0.226745 0.012057
v -0.008283 0.211811 0.012213
v -0.006296 0.215655 0.012287
v -0.007247 0.224274 0.009999
v -0.010761 0.211245 0.012825
v -0.007524 0.211453 0.003723
v 0.006353 0.235402 0.011454
v 0.000286 0.238039 0.013356
v 0.005445 0.233888 0.011020
v -0.009855 0.210822 0.002749
v -0.008832 0.222613 0.002576
v -0.005189 0.214791 0.003714
v -0.011678 0.208335 0.010551
v -0.011730 0.207220 0.007799
v -0.011182 0.208101 0.005027
v 0.007039 0.236518 0.009902
v 0.001769 0.236933 0.008095
v 0.007742 0.238272 0.008336
v -0.007102 0.222742 0.007764
v -0.007018 0.222907 0.006703
v -0.004951 0.221080 0.005593
v -0.006538 0.210829 0.012381
v -0.005462 0.215814 0.012141
v -0.004659 0.221563 0.010307
v -0.008987 0.210227 0.013004
v -0.005864 0.210572 0.003866
v -0.005877 0.208994 0.005687
v -0.006027 0.208353 0.008258
v -0.006332 0.209199 0.010750
v -0.008082 0.209804 0.002928
v -0.004314 0.220199 0.003326
v -0.004156 0.214801 0.003641
v -0.009905 0.207317 0.010729
v -0.009957 0.206202 0.007978
v -0.009409 0.207082 0.005206
v -0.003809 0.213531 0.009929
v -0.002370 0.212606 0.008393
v -0.003710 0.213779 0.006194
v -0.001947 0.219412 0.008909
v -0.004527 0.220253 0.007062
v -0.005036 0.221377 0.005682
v 0.005053 0.232512 0.003813
v 0.001956 0.236365 0.002223
v 0.001182 0.237164 0.006064
v 0.007705 0.235047 0.007227
v 0.000692 0.242305 0.011113
v 0.006364 0.241645 0.010205
v 0.007088 0.240695 0.009609
v -0.000058 0.244444 0.009936
v 0.007030 0.239883 0.008252
v -0.000650 0.244950 0.008688
v 0.005751 0.239338 0.003085
v 0.000969 0.239904 0.002893
v 0.000090 0.243149 0.006092
v 0.006934 0.239606 0.005837
v -0.010116 0.228115 0.010915
v -0.008439 0.232725 0.010304
v -0.006407 0.235137 0.001185
v -0.009065 0.226702 0.002553
v -0.006921 0.237054 0.009011
v -0.004188 0.241177 0.001281
v -0.009462 0.227390 0.007984
v -0.009312 0.227178 0.005235
v -0.010394 0.223619 0.004289
v -0.007982 0.230261 0.003499
v -0.005763 0.236301 0.003595
v -0.006267 0.237557 0.007496
v -0.008525 0.231036 0.009063
v -0.011063 0.224451 0.009838
v -0.009789 0.227752 0.009450
v -0.007292 0.235323 0.008879
v -0.006085 0.235719 0.002390
v -0.009188 0.226940 0.003894
v -0.002237 0.234901 0.010006
v -0.002211 0.234921 0.010003
v -0.002162 0.235005 0.009972
v -0.002198 0.234940 0.009962
v -0.006346 0.227466 0.011337
v -0.006321 0.227540 0.011328
v -0.006304 0.227542 0.011289
v -0.006337 0.227457 0.011299
v -0.003185 0.229427 0.002331
v -0.001905 0.229097 0.005832
v -0.006891 0.221847 0.004084
v -0.007175 0.223508 0.008882
v 0.001549 0.236739 0.004146
v 0.002884 0.236114 0.011859
v -0.000829 0.228315 0.009392
v -0.003555 0.231030 0.011291
v -0.002616 0.229280 0.004101
v -0.002192 0.229672 0.010342
v -0.001709 0.234408 0.011937
v 0.001342 0.238200 0.012756
v 0.000300 0.232755 0.011072
v -0.002873 0.230351 0.010816
v -0.000704 0.233581 0.011504
v -0.006071 0.239851 0.008774
v -0.006050 0.239892 0.008776
v -0.006039 0.239883 0.008762
v -0.006063 0.239843 0.008762
v -0.007211 0.223891 0.009441
v -0.005401 0.227652 0.010645
v -0.004683 0.226590 0.009612
v -0.002532 0.230012 0.010579
v -0.003214 0.230691 0.011054
v -0.008487 0.231766 0.010041
v -0.008386 0.231951 0.010076
v -0.008469 0.231747 0.010028
v -0.008450 0.231729 0.010015
v -0.008331 0.231906 0.010052
v -0.005522 0.244261 0.007978
v -0.005519 0.244285 0.007966
v -0.005507 0.244251 0.007970
v -0.005494 0.244239 0.007965
v -0.005523 0.244296 0.007959
v -0.005516 0.244262 0.007975
v -0.006009 0.226020 0.002454
v -0.000615 0.232896 0.002277
v -0.007862 0.222230 0.003330
v 0.001752 0.236552 0.003185
v -0.000534 0.233009 0.004124
v -0.004754 0.225563 0.004093
v -0.002901 0.229353 0.003216
v -0.005381 0.225792 0.003273
v -0.000574 0.232953 0.003200
v -0.006110 0.237067 0.001214
v -0.006191 0.236958 0.001216
v -0.006116 0.237073 0.001244
v -0.006190 0.236960 0.001245
v -0.002214 0.230789 0.002926
v -0.002219 0.230772 0.002929
v -0.002219 0.230774 0.002933
v -0.002213 0.230791 0.002929
v -0.003729 0.240915 0.002266
v -0.003734 0.240921 0.002295
v -0.003737 0.240963 0.002247
v -0.003751 0.241012 0.002296
v -0.003723 0.240909 0.002237
v -0.003726 0.240912 0.002252
v -0.008541 0.228125 0.003850
v -0.008552 0.228128 0.003813
v -0.008668 0.227988 0.003818
v -0.008643 0.227979 0.003852
v -0.009879 0.233790 0.011302
v -0.018378 0.216875 0.002102
v -0.014054 0.225430 0.000235
v -0.011267 0.228446 0.011742
v -0.022782 0.215927 0.002578
v -0.019602 0.218811 0.012663
v -0.015737 0.227479 0.012902
v -0.023522 0.217644 0.011385
v -0.007544 0.234873 0.000394
v -0.009980 0.226729 0.001568
v -0.006289 0.240736 0.000748
v -0.007687 0.240218 0.008998
v -0.008177 0.222468 0.004577
v -0.009179 0.227912 0.007237
v -0.009139 0.227744 0.005976
v -0.009199 0.224001 0.009382
v -0.005564 0.237269 0.004473
v -0.005820 0.238040 0.006529
v -0.024896 0.219551 0.010788
v -0.015624 0.220156 0.000911
v -0.014533 0.227824 0.000347
v -0.024298 0.217989 0.002047
v -0.018175 0.228664 0.011006
v -0.017225 0.222279 0.013414
v -0.021355 0.223195 0.001149
v -0.015977 0.229559 0.011944
v -0.001119 0.229812 0.008538
v -0.000437 0.233092 0.005040
v -0.000901 0.230276 0.011252
v -0.002332 0.229352 0.006592
v -0.004149 0.225202 0.004901
v 0.001514 0.232163 0.010696
v -0.004205 0.226161 0.009113
v -0.004949 0.227246 0.010150
v -0.001331 0.231632 0.010942
v -0.008412 0.231840 0.010046
v -0.005512 0.244266 0.007966
v -0.001592 0.227975 0.002947
v -0.003737 0.240955 0.002272
vn -0.0000 -1.0000 -0.0000
vn -0.0000 1.0000 -0.0000
vn 0.1205 -0.0000 0.9927
vn -0.7485 -0.0000 -0.6631
vn 0.5681 -0.0000 0.8230
vn -0.9709 -0.0000 -0.2393
vn 0.8855 -0.0000 0.4647
vn 1.0000 -0.0000 -0.0000
vn 0.8855 -0.0000 -0.4647
vn -0.9709 -0.0000 0.2393
vn 0.5681 -0.0000 -0.8230
vn -0.7485 -0.0000 0.6631
vn 0.1205 -0.0000 -0.9927
vn -0.3546 -0.0000 0.9350
vn -0.3546 -0.0000 -0.9350
vn 0.5053 0.3797 0.7749
vn -0.4389 0.0160 0.8984
vn -0.7583 0.0683 0.6483
vn -0.7937 0.0358 0.6073
vn -0.9754 0.0186 -0.2195
vn -0.9568 -0.1355 -0.2572
vn -0.7350 -0.2305 -0.6377
vn -0.7159 -0.0450 -0.6967
vn 0.2013 -0.2676 -0.9423
vn 0.1238 -0.1348 -0.9831
vn 0.7201 -0.0304 -0.6932
vn 0.6571 -0.1235 -0.7436
vn 0.9970 0.0772 -0.0040
vn 0.9964 0.0692 -0.0488
vn 0.8011 0.1722 0.5732
vn 0.7820 0.1689 0.6000
vn -0.8399 -0.4968 -0.2185
vn -0.3312 -0.6648 -0.6696
vn 0.9438 -0.1520 -0.2936
vn 0.7546 0.3767 0.5373
vn 0.6466 0.5064 -0.5705
vn -0.7462 -0.4122 -0.5228
vn 0.8522 0.5028 0.1448
vn -0.7406 -0.5099 0.4376
vn -0.5731 -0.6769 0.4619
vn -0.9557 0.1349 -0.2618
vn 0.5259 0.5050 -0.6844
vn 0.5718 -0.5639 0.5959
vn -0.3482 -0.3300 0.8774
vn 0.7966 0.3936 0.4588
vn -0.8114 -0.5835 0.0334
vn 0.4924 0.4881 -0.7207
vn -0.3912 0.1204 0.9124
vn -0.8722 0.4868 -0.0468
vn -0.1294 0.3563 -0.9254
vn 0.8191 -0.5591 0.1288
vn 0.9244 -0.1636 0.3445
vn 0.8352 0.3427 -0.4301
vn -0.8410 0.3122 -0.4419
vn 0.0337 -0.7295 0.6832
vn 0.8824 -0.0640 -0.4661
vn -0.6537 0.1153 0.7479
vn -0.3492 0.0171 -0.9369
vn 0.2018 0.0063 -0.9794
vn 0.6074 -0.4753 0.6365
vn 0.6825 -0.2215 -0.6965
vn -0.7688 0.5062 -0.3908
vn -0.5447 0.1732 0.8205
vn -0.2983 -0.0606 0.9525
vn -0.9000 -0.2056 -0.3843
vn 0.8000 0.1122 -0.5895
vn 0.8517 0.1915 -0.4878
vn 0.1105 0.0231 -0.9936
vn -0.9765 0.1891 -0.1031
vn -0.1903 -0.0143 0.9816
vn 0.1843 -0.1165 0.9759
vn -0.4533 0.8798 -0.1433
vn -0.5679 0.8226 0.0296
vn -0.1321 0.2891 0.9482
vn 0.5522 0.8328 -0.0379
vn -0.0323 0.0187 0.9993
vn 0.5529 0.0929 -0.8281
vn -0.3517 -0.0945 -0.9313
vn -0.8227 -0.1886 0.5363
vn -0.9439 -0.3281 0.0386
vn 0.0097 -0.9998 0.0200
vn 0.0328 0.0371 0.9988
vn -0.9781 0.1196 -0.1704
vn 0.9954 -0.0241 -0.0931
vn 0.2869 0.1480 0.9465
vn 0.0265 0.0403 0.9988
vn -0.9307 -0.3330 -0.1514
vn -0.3815 0.1296 -0.9152
vn 0.8236 0.5536 -0.1231
vn 0.2949 0.0031 0.9555
vn 0.1541 -0.0016 -0.9881
vn -0.6685 -0.7435 0.0187
vn 0.0460 -0.9989 0.0117
vn -0.5618 0.8272 0.0130
vn 0.9688 0.2213 0.1113
vn 0.1003 0.3515 0.9308
vn 0.1029 0.3369 -0.9359
vn 0.0116 -0.0880 0.9961
vn 0.0257 -0.4167 -0.9087
vn 0.1691 0.9517 0.2562
vn 0.1057 0.1840 -0.9772
vn 0.8955 0.4286 -0.1199
vn 0.0547 0.2836 0.9574
vn -0.0247 0.0419 0.9988
vn -0.0487 0.0710 0.9963
vn 0.5355 -0.1760 0.8260
vn -0.2732 0.1755 -0.9458
vn -0.2362 0.1746 0.9559
vn -0.3866 0.3938 0.8340
vn -0.3646 0.3115 0.8775
vn -0.6433 0.2037 -0.7381
vn 0.4208 0.0731 0.9042
vn -0.2258 0.1852 0.9564
vn -0.3257 0.0611 0.9435
vn -0.0631 -0.0534 0.9966
vn 0.4122 -0.1329 0.9013
vn 0.6524 0.0439 0.7566
vn 0.0197 0.2655 -0.9639
vn 0.2520 -0.8049 0.5372
vn -0.5478 -0.6892 0.4742
vn 0.3385 -0.9269 -0.1624
vn -0.4500 -0.8333 -0.3211
vn -0.2570 -0.8700 0.4208
vn 0.0875 -0.4669 0.8800
vn -0.4092 -0.4654 0.7848
vn -0.2957 -0.7155 0.6329
vn -0.7540 -0.6426 0.1359
vn -0.5592 -0.7854 0.2654
vn 0.2400 -0.9379 -0.2504
vn -0.2306 -0.7129 -0.6623
vn 0.2730 -0.7264 -0.6307
vn 0.0956 -0.0064 0.9954
vn -0.4355 -0.8521 -0.2904
vn 0.0466 0.6438 -0.7638
vn 0.1463 -0.2423 -0.9591
vn -0.5039 0.4132 0.7585
vn 0.1933 0.0131 -0.9811
vn -0.7617 0.3783 0.5260
vn 0.6031 -0.4125 -0.6827
vn 0.1424 -0.3661 -0.9196
vn -0.0690 -0.2611 -0.9629
vn 0.1544 -0.0406 -0.9872
vn -0.2655 0.4465 0.8545
vn 0.5485 -0.3192 -0.7728
vn 0.1417 -0.2125 -0.9668
vn 0.0542 0.0051 -0.9985
vn -0.1077 -0.1046 -0.9887
vn 0.8062 -0.2615 -0.5307
vn -0.2215 0.7596 -0.6114
vn 0.7888 -0.1840 -0.5864
vn -0.7065 0.4697 -0.5294
vn -0.7784 0.5298 -0.3368
vn -0.8340 0.5210 -0.1814
vn -0.8710 0.4681 -0.1492
vn -0.1480 0.4350 0.8882
vn -0.6750 0.4626 -0.5748
vn -0.3570 0.4278 -0.8304
vn -0.5944 0.5893 -0.5471
vn -0.8088 0.5355 -0.2432
vn -0.8632 0.5037 -0.0331
vn -0.7996 0.5970 0.0648
vn -0.7102 0.5170 0.4778
vn -0.5497 0.5517 0.6272
vn 0.4180 0.8702 0.2607
vn 0.1992 0.9759 -0.0893
vn 0.2712 0.6790 -0.6822
vn 0.9202 -0.3700 0.1276
vn -0.3754 -0.5482 -0.7474
vn 0.9248 -0.3529 0.1424
vn 0.0870 0.8631 -0.4975
vn 0.9360 -0.3458 -0.0661
vn -0.0706 -0.5357 0.8414
vn 0.2329 0.8614 -0.4513
vn -0.1220 -0.0143 -0.9924
vn 0.2558 0.2264 0.9398
vn 0.9410 -0.3173 0.1173
vn 0.9228 -0.3360 -0.1887
vn 0.9458 -0.2546 0.2015
vn -0.0192 0.0664 0.9976
vn 0.9191 -0.2283 0.3211
vn 0.8911 -0.3233 0.3184
vn 0.1981 0.9786 0.0564
vn -0.9373 0.2493 0.2437
vn -0.8739 0.1270 -0.4693
vn -0.7015 0.5680 -0.4304
vn -0.7456 0.6410 0.1822
vn -0.7153 -0.5151 -0.4723
vn -0.7563 -0.3641 0.5436
vn -0.6976 -0.5798 -0.4210
vn -0.6947 -0.4809 0.5348
vn -0.0554 -0.2794 -0.9586
vn -0.7098 0.5738 0.4086
vn -0.6513 0.7228 0.2310
vn -0.5656 0.8227 0.0574
vn -0.5679 0.7624 -0.3102
vn -0.6326 0.5857 -0.5067
vn -0.6162 0.4206 -0.6659
vn 0.7942 -0.4780 0.3752
vn 0.6293 -0.5625 0.5363
vn -0.9135 0.3551 -0.1984
vn 0.7519 -0.6399 0.1587
vn 0.2542 -0.1522 -0.9551
vn 0.0541 0.2785 0.9589
vn -0.6125 0.7229 -0.3198
vn -0.0937 0.1232 0.9880
vn -0.5924 0.7940 -0.1366
vn -0.6029 -0.6236 0.4976
vn -0.2903 -0.8572 -0.4253
vn -0.1377 0.1754 0.9748
vn -0.2429 -0.0209 0.9698
vn 0.7497 -0.6602 -0.0443
vn -0.9148 0.3733 -0.1542
vn 0.2452 -0.1408 -0.9592
vn 0.0821 -0.2926 -0.9527
vn -0.9857 0.1580 -0.0587
vn -0.7711 0.6206 -0.1425
vn 0.1925 -0.1335 0.9722
vn -0.0079 0.2413 0.9704
vn -0.9371 0.2945 -0.1872
vn -0.8545 -0.2476 -0.4566
vn 0.4099 -0.3786 -0.8298
vn 0.3963 -0.5417 -0.7413
vn -0.5933 -0.0554 -0.8031
vn 0.0583 -0.4220 -0.9047
vn 0.3461 -0.2388 -0.9073
vn -0.2665 -0.1576 0.9509
vn -0.7545 0.1623 0.6360
vn 0.2351 -0.2987 -0.9249
vn -0.3479 0.0248 0.9372
vn -0.7649 0.6430 0.0393
vn 0.7695 -0.6323 -0.0895
vn 0.8354 -0.4593 -0.3019
vn 0.4409 -0.4068 -0.8001
vn 0.7869 -0.2233 -0.5753
vn 0.3676 0.4334 -0.8228
vn 0.2369 -0.1811 -0.9545
vn -0.4715 -0.0660 -0.8794
vn -0.6057 0.1294 -0.7851
vn -0.9711 0.1103 -0.2115
vn -0.5951 0.0742 -0.8002
vn -0.4499 0.0858 -0.8890
vn -0.7739 0.5888 -0.2332
vn 0.2303 0.6843 0.6919
vn 0.5529 0.0127 0.8332
vn 0.1616 0.0165 0.9867
vn 0.6631 -0.3010 0.6854
vn 0.7568 -0.5250 0.3895
vn 0.0941 -0.1469 0.9847
vn -0.6838 0.3837 0.6206
vn -0.6808 0.1420 0.7186
vn -0.9452 0.3033 -0.1212
vn -0.5431 0.2747 0.7934
vn -0.5363 0.2194 0.8150
vn -0.9592 0.0929 0.2672
vn 0.0135 -0.0381 -0.9992
vn 0.1595 0.2737 0.9485
vn -0.5836 0.0060 0.8120
vn 0.0842 -0.0849 -0.9928
vn -0.0026 0.0197 0.9998
vn -0.8388 0.3845 0.3854
vn 0.2731 0.3413 -0.8994
vn 0.7444 -0.6465 0.1672
vn -0.1580 -0.0389 0.9867
vn -0.2371 -0.5530 -0.7987
vn -0.3656 -0.4989 0.7858
vn -0.4399 -0.8272 -0.3496
vn 0.2265 0.1257 0.9659
vn -0.1885 -0.1867 -0.9642
vn 0.3346 -0.6442 0.6878
vn 0.4589 -0.6838 -0.5673
vn 0.4845 -0.8560 -0.1805
vn 0.4360 -0.8358 0.3339
vn 0.9473 -0.0346 -0.3186
vn 0.9153 0.1647 -0.3674
vn 0.7656 -0.2273 0.6018
vn 0.7137 -0.4725 0.5171
vn 0.7895 -0.4817 -0.3803
vn 0.8782 -0.3679 -0.3057
vn 0.9918 0.1165 0.0522
vn 0.6572 0.0342 0.7529
vn 0.1342 0.3943 0.9091
vn -0.4945 -0.8022 0.3346
vn 0.8306 0.0769 0.5515
vn -0.7850 -0.3208 0.5299
vn -0.3254 0.3656 0.8721
vn 0.8633 -0.0870 -0.4972
vn -0.3114 0.2105 -0.9267
vn 0.6709 -0.3643 -0.6459
vn 0.5308 -0.3949 0.7499
vn -0.5349 0.2401 0.8101
vn 0.7206 -0.5996 0.3482
vn 0.2224 -0.1497 0.9634
vn 0.4791 0.8309 -0.2828
vn 0.4899 0.8431 -0.2217
vn 0.3217 0.7882 0.5246
vn 0.2866 0.8185 -0.4979
vn 0.2991 0.2903 0.9090
vn 0.9594 0.1263 0.2521
vn -0.9682 -0.2450 0.0510
vn 0.2210 0.0007 -0.9753
vn 0.9601 0.1794 -0.2146
vn 0.1833 0.2322 -0.9552
vn -0.1876 -0.9624 0.1962
vn 0.9238 -0.3064 0.2296
vn 0.9079 -0.3419 0.2424
vn -0.0229 0.3799 0.9248
vn 0.9113 -0.2728 0.3085
vn 0.9132 -0.2365 0.3318
vn 0.9120 -0.3743 -0.1678
vn 0.9385 -0.3450 0.0146
vn 0.7268 0.5221 -0.4463
vn 0.9346 -0.3337 0.1232
vn 0.9303 -0.3270 0.1661
vn 0.9361 -0.3095 0.1671
vn 0.8107 -0.5854 -0.0072
vn -0.0038 0.1458 0.9893
vn 0.1421 -0.5296 -0.8363
vn 0.2101 0.0300 -0.9772
vn 0.9014 -0.2871 0.3241
vn 0.4367 -0.2693 -0.8583
vn -0.0844 0.1503 0.9850
vn 0.6871 0.6471 0.3303
vn -0.8485 0.5105 -0.1396
vn -0.7395 0.4725 0.4795
vn -0.1980 0.4204 -0.8855
vn -0.5579 0.6673 -0.4935
vn -0.7024 0.5650 -0.4328
vn -0.2430 0.3801 -0.8925
vn -0.1297 0.3156 -0.9400
vn -0.2762 0.3486 -0.8956
vn -0.2697 -0.7187 0.6409
vn -0.6154 0.3518 -0.7054
vn -0.6789 -0.6902 -0.2505
vn 0.0466 0.9475 0.3163
vn 0.4785 0.0231 -0.8778
vn -0.5331 -0.3193 -0.7835
vn -0.2520 -0.0471 0.9666
vn -0.2696 -0.7189 0.6407
vn 0.0511 0.5110 -0.8581
vn 0.1653 0.0980 -0.9814
vn 0.1166 -0.0889 -0.9892
vn -0.2352 -0.7518 -0.6160
vn -0.2763 0.4677 0.8396
vn 0.3372 0.0794 -0.9381
vn -0.7306 -0.6412 0.2349
vn -0.6705 -0.7360 -0.0932
vn -0.1952 0.9702 0.1438
vn -0.5434 0.4321 0.7197
vn -0.5760 0.3704 0.7288
vn -0.5964 -0.7992 0.0751
vn -0.8118 0.5640 0.1512
vn -0.8464 0.5090 0.1569
vn -0.9681 -0.1853 -0.1685
vn -0.8143 0.5625 -0.1433
vn -0.2272 0.1511 0.9621
vn 0.1063 0.9800 -0.1681
vn 0.1148 -0.1006 -0.9883
vn 0.9507 -0.3100 -0.0073
vn 0.0811 0.1712 0.9819
vn 0.1657 -0.2247 -0.9602
vn 0.1240 -0.8735 0.4708
vn -0.6247 -0.7806 0.0197
vn -0.6308 -0.7743 0.0509
vn -0.6247 -0.7806 0.0196
vn 0.2503 0.7132 -0.6547
vn -0.6618 -0.1241 0.7394
vn -0.6970 0.5425 0.4689
vn -0.3092 0.2231 -0.9245
vn -0.5275 -0.8321 0.1717
vn 0.1269 -0.0725 0.9893
vn 0.0510 -0.0034 -0.9987
vn -0.9924 0.1199 0.0269
vn -0.1865 -0.0464 -0.9814
vn 0.1890 -0.0545 0.9805
vn 0.0139 0.0317 0.9994
vn -0.6630 -0.7485 -0.0109
vn -0.6853 -0.7214 -0.1001
vn -0.6832 -0.7290 0.0424
vn -0.6756 -0.7373 -0.0032
vn 0.2132 -0.6253 -0.7507
vn 0.2783 -0.4191 -0.8642
vn 0.2524 -0.4169 -0.8732
vn 0.0446 -0.2110 -0.9765
vn -0.0070 0.0220 0.9997
vn -0.0023 0.0214 0.9998
vn 0.0129 -0.0463 0.9988
vn -0.1164 0.0952 0.9886
vn 0.4693 -0.1917 0.8620
vn 0.4059 -0.1341 0.9040
vn 0.5210 -0.0908 0.8487
vn -0.4184 0.3780 -0.8259
vn -0.5343 0.1192 -0.8369
vn -0.3269 0.0331 -0.9445
vn -0.2674 -0.0317 -0.9631
vn -0.7437 0.1992 -0.6382
vn -0.6505 0.1374 -0.7470
vn -0.6248 0.0851 -0.7762
vn -0.3361 0.0798 -0.9384
vn 0.6088 0.1223 0.7839
vn 0.7050 -0.0603 0.7067
vn 0.5647 -0.0864 0.8207
vn -0.0343 0.3999 -0.9159
vn -0.0630 0.2802 -0.9579
vn -0.0048 0.2397 -0.9708
vn 0.0035 0.2221 -0.9750
vn -0.5088 0.2555 0.8221
vn -0.5344 0.2815 0.7970
vn -0.7094 0.3087 0.6336
vn -0.6012 0.5550 0.5749
vn -0.4011 0.2887 0.8694
vn -0.7693 0.2549 0.5858
vn -0.7907 0.3234 0.5197
vn -0.8504 0.3449 0.3974
vn -0.2506 0.4746 0.8438
vn -0.2470 0.4658 0.8497
vn -0.1845 0.4155 0.8907
vn -0.2416 0.3597 0.9013
vn 0.5930 -0.3393 -0.7302
vn 0.6209 -0.3275 -0.7122
vn 0.5899 -0.3138 -0.7440
vn 0.7314 -0.1351 -0.6684
vn 0.5638 -0.1960 -0.8023
vn 0.6911 -0.3153 -0.6503
vn 0.6911 -0.3153 -0.6504
vn 0.0363 0.6927 -0.7203
vn 0.1607 0.7383 -0.6550
vn -0.1147 0.9391 -0.3239
vn -0.1147 0.9391 -0.3240
vn 0.4078 0.5091 0.7580
vn 0.7343 0.1194 0.6682
vn 0.5821 0.1442 0.8003
vn 0.3503 0.0887 0.9324
vn 0.3675 0.9250 0.0965
vn 0.4126 0.9083 -0.0692
vn 0.4125 0.9083 -0.0692
vn 0.6865 0.7061 -0.1735
vn 0.9237 -0.3712 0.0947
vn 0.9234 -0.3777 0.0690
vn 0.9218 -0.3786 0.0838
vn 0.9203 -0.3830 0.0802
vn 0.9353 -0.3503 0.0493
vn 0.9269 -0.3745 -0.0261
vn 0.9245 -0.3752 0.0665
vn 0.0476 0.8487 -0.5267
vn 0.0620 0.8251 -0.5616
vn 0.1040 0.8458 -0.5233
vn 0.9302 -0.3323 0.1556
vn 0.9262 -0.2894 0.2419
vn 0.9501 -0.2900 0.1151
vn 0.9160 -0.2562 0.3088
vn 0.9022 -0.2331 0.3629
vn 0.9220 -0.2308 0.3110
vn 0.9219 -0.2311 0.3108
vn -0.0407 0.0800 0.9960
vn -0.0081 0.0964 0.9953
vn 0.0059 0.0448 0.9990
vn -0.0190 0.0665 0.9976
vn -0.4047 -0.1000 -0.9090
vn -0.5462 0.0272 -0.8372
vn -0.5456 0.0330 -0.8374
vn -0.7397 0.0678 -0.6695
vn -0.1031 -0.1128 -0.9883
vn -0.2318 -0.2390 -0.9429
vn -0.2410 -0.2337 -0.9420
vn -0.0656 -0.5182 -0.8527
vn 0.2501 -0.2784 -0.9273
vn 0.3414 -0.3574 -0.8693
vn 0.3518 -0.4469 -0.8225
vn 0.6657 -0.4216 -0.6157
vn -0.2804 0.0354 0.9592
vn -0.0216 -0.1808 0.9833
vn -0.0579 -0.1794 0.9821
vn -0.0450 -0.3846 0.9220
vn -0.8553 0.2226 0.4679
vn -0.7344 0.2365 0.6362
vn -0.7323 0.2566 0.6308
vn -0.6229 0.1648 0.7648
vn 0.0622 -0.2065 -0.9765
vn 0.2947 -0.4360 -0.8503
vn 0.2785 -0.3255 -0.9036
vn 0.2585 -0.3237 -0.9102
vn -0.5154 -0.1303 0.8470
vn -0.6929 0.3380 0.6369
vn -0.5907 0.2798 0.7568
vn -0.5148 0.3674 0.7746
vn -0.5130 0.3483 0.7845
vn -0.4720 0.2441 0.8472
vn -0.5667 0.2780 0.7756
vn -0.9328 0.3550 0.0626
vn -0.8736 0.4123 -0.2586
vn -0.8722 0.4867 0.0481
vn 0.0693 -0.1371 0.9881
vn 0.1732 -0.2823 0.9436
vn -0.2830 -0.2103 0.9358
vn -0.0338 -0.1698 0.9849
vn -0.6660 0.4743 -0.5758
vn -0.8635 0.4083 0.2962
vn -0.7790 0.3137 -0.5429
vn -0.7796 0.3124 -0.5428
vn -0.7064 0.2487 0.6627
vn -0.8365 0.3900 0.3850
vn -0.6541 0.3748 0.6570
vn -0.1304 0.3271 -0.9360
vn -0.1332 0.3222 -0.9372
vn -0.0524 0.2988 -0.9529
vn -0.0835 0.3649 -0.9273
vn -0.3782 0.4915 -0.7845
vn -0.1959 0.4222 -0.8851
vn -0.2872 0.5520 -0.7828
vn -0.4805 0.4107 -0.7749
vn -0.4804 0.4107 -0.7749
vn -0.2591 0.3651 -0.8942
vn -0.3776 0.4911 -0.7850
vn -0.1991 0.3302 -0.9227
vn -0.1433 0.3166 -0.9377
vn -0.1727 0.3570 -0.9180
vn -0.2765 0.3487 -0.8955
vn -0.2273 0.3011 -0.9261
vn -0.1660 0.2912 -0.9422
vn -0.1989 0.3299 -0.9228
vn -0.7685 -0.3304 -0.5480
vn -0.1510 -0.8608 -0.4860
vn -0.6557 -0.3008 -0.6925
vn -0.9132 -0.3886 -0.1227
vn -0.6592 -0.4086 -0.6312
vn 0.1939 -0.1952 -0.9614
vn 0.1828 -0.1683 -0.9686
vn 0.2137 -0.1734 -0.9614
vn 0.2526 -0.1888 -0.9490
vn 0.2086 -0.1202 -0.9706
vn -0.9680 -0.1860 -0.1687
vn -0.9711 -0.1904 -0.1437
vn -0.9763 -0.1774 -0.1242
vn -0.9772 -0.2027 -0.0628
vn -0.9639 -0.2539 -0.0798
vt 0.377476 0.669989
vt 0.368887 0.675920
vt 0.348769 0.673481
vt 0.382326 0.660746
vt 0.341849 0.665670
vt 0.382326 0.650308
vt 0.339351 0.655536
vt 0.377476 0.641067
vt 0.341849 0.645401
vt 0.368887 0.635139
vt 0.348769 0.637587
vt 0.358527 0.633883
vt 0.358527 0.677180
vt 0.446845 0.669116
vt 0.436189 0.695988
vt 0.439032 0.675994
vt 0.456836 0.666634
vt 0.441810 0.704524
vt 0.466715 0.669116
vt 0.450762 0.709344
vt 0.474219 0.675994
vt 0.460994 0.709344
vt 0.477630 0.685692
vt 0.470162 0.704524
vt 0.476166 0.695988
vt 0.435187 0.685692
vt 0.533758 0.994657
vt 0.523449 0.994548
vt 0.523449 0.004453
vt 0.533758 0.004563
vt 0.660091 0.865423
vt 0.651704 0.868506
vt 0.651704 0.006919
vt 0.660091 0.003836
vt 0.515083 0.994132
vt 0.515083 0.004037
vt 0.641390 0.869303
vt 0.641390 0.007716
vt 0.623840 0.978658
vt 0.614343 0.977830
vt 0.614343 0.003836
vt 0.623840 0.004664
vt 0.603920 0.977940
vt 0.603920 0.003946
vt 0.594960 0.978964
vt 0.594960 0.004970
vt 0.631511 0.867630
vt 0.631511 0.006044
vt 0.587288 0.996112
vt 0.578605 0.996156
vt 0.578605 0.003880
vt 0.587288 0.003836
vt 0.550852 0.993931
vt 0.543648 0.994434
vt 0.543648 0.004340
vt 0.550852 0.003836
vt 0.568225 0.996164
vt 0.568225 0.003889
vt 0.558524 0.996135
vt 0.558524 0.003859
vt 0.406244 0.589043
vt 0.400122 0.563674
vt 0.412394 0.570465
vt 0.425054 0.673452
vt 0.395100 0.528958
vt 0.397174 0.523686
vt 0.403364 0.520749
vt 0.416984 0.564507
vt 0.451251 0.658962
vt 0.452898 0.579865
vt 0.461388 0.576591
vt 0.466489 0.593247
vt 0.471968 0.566499
vt 0.477630 0.592588
vt 0.451251 0.540149
vt 0.463687 0.539040
vt 0.094066 0.562346
vt 0.102777 0.527593
vt 0.110148 0.529787
vt 0.104118 0.565860
vt 0.080966 0.587875
vt 0.090127 0.586803
vt 0.112226 0.558576
vt 0.097055 0.598912
vt 0.116339 0.532536
vt 0.124663 0.535141
vt 0.116219 0.557083
vt 0.109154 0.587229
vt 0.443590 0.449347
vt 0.438458 0.420313
vt 0.449770 0.429305
vt 0.456971 0.454706
vt 0.432726 0.397458
vt 0.442997 0.397731
vt 0.466033 0.397559
vt 0.462893 0.429834
vt 0.466806 0.454141
vt 0.453222 0.648773
vt 0.395100 0.685487
vt 0.407386 0.681123
vt 0.414104 0.690762
vt 0.395100 0.743773
vt 0.500931 0.521975
vt 0.445519 0.465662
vt 0.507411 0.531368
vt 0.738480 0.731541
vt 0.735966 0.725146
vt 0.735966 0.655451
vt 0.746855 0.660674
vt 0.080966 0.433681
vt 0.092651 0.433651
vt 0.454906 0.325035
vt 0.462716 0.320271
vt 0.162782 0.615987
vt 0.173111 0.619490
vt 0.154133 0.658796
vt 0.131777 0.661145
vt 0.173111 0.684824
vt 0.159032 0.688583
vt 0.703508 0.308020
vt 0.698894 0.307252
vt 0.667763 0.269849
vt 0.674491 0.266910
vt 0.675882 0.647779
vt 0.669742 0.645447
vt 0.667763 0.598428
vt 0.676766 0.599246
vt 0.489282 0.287448
vt 0.499790 0.287745
vt 0.419841 0.431260
vt 0.425054 0.433790
vt 0.476225 0.327209
vt 0.433405 0.539040
vt 0.443579 0.544922
vt 0.437556 0.597251
vt 0.433405 0.595022
vt 0.097516 0.438062
vt 0.107079 0.438653
vt 0.289224 0.728340
vt 0.277135 0.732887
vt 0.242719 0.669718
vt 0.255046 0.668181
vt 0.671861 0.201294
vt 0.678983 0.199660
vt 0.697011 0.544174
vt 0.704746 0.544169
vt 0.491319 0.223052
vt 0.503094 0.222470
vt 0.507175 0.299329
vt 0.446293 0.329982
vt 0.473117 0.281342
vt 0.724781 0.302713
vt 0.691930 0.256119
vt 0.129332 0.664239
vt 0.155245 0.689204
vt 0.486907 0.158716
vt 0.507411 0.148067
vt 0.261238 0.666795
vt 0.243822 0.603382
vt 0.250980 0.604907
vt 0.688769 0.549256
vt 0.700679 0.489622
vt 0.708159 0.477615
vt 0.716600 0.548394
vt 0.711707 0.475354
vt 0.718298 0.483013
vt 0.507149 0.231208
vt 0.683365 0.607316
vt 0.687002 0.192494
vt 0.292188 0.726848
vt 0.230767 0.610481
vt 0.284307 0.453898
vt 0.292188 0.442281
vt 0.695258 0.144144
vt 0.682493 0.142608
vt 0.704614 0.021349
vt 0.711978 0.017415
vt 0.738661 0.154929
vt 0.735856 0.157749
vt 0.732453 0.005341
vt 0.738661 0.003836
vt 0.486145 0.007579
vt 0.500252 0.003836
vt 0.227507 0.662914
vt 0.218544 0.589825
vt 0.724781 0.007881
vt 0.702560 0.003836
vt 0.719224 0.004312
vt 0.695729 0.017524
vt 0.281099 0.431260
vt 0.265218 0.436405
vt 0.456711 0.734342
vt 0.455929 0.717016
vt 0.473253 0.717016
vt 0.464775 0.729277
vt 0.683428 0.315692
vt 0.687863 0.322838
vt 0.667763 0.323050
vt 0.680490 0.316852
vt 0.676615 0.136339
vt 0.180783 0.557534
vt 0.180783 0.433699
vt 0.189613 0.434192
vt 0.189613 0.558026
vt 0.507411 0.574186
vt 0.485302 0.570637
vt 0.497474 0.539040
vt 0.500368 0.539265
vt 0.285026 0.422074
vt 0.227089 0.091790
vt 0.321126 0.241941
vt 0.192084 0.656969
vt 0.200632 0.557486
vt 0.725970 0.630427
vt 0.725970 0.315994
vt 0.728845 0.315692
vt 0.728845 0.630125
vt 0.384055 0.049481
vt 0.336260 0.232632
vt 0.200632 0.433651
vt 0.003836 0.417723
vt 0.093048 0.233111
vt 0.070791 0.338552
vt 0.736517 0.532092
vt 0.739849 0.532353
vt 0.739849 0.545189
vt 0.736963 0.544963
vt 0.252367 0.423588
vt 0.218544 0.107091
vt 0.210872 0.108909
vt 0.176453 0.425979
vt 0.143216 0.423505
vt 0.202295 0.093555
vt 0.360101 0.732385
vt 0.339351 0.731130
vt 0.349313 0.709282
vt 0.485302 0.712646
vt 0.330703 0.717528
vt 0.331679 0.720376
vt 0.328637 0.728895
vt 0.328637 0.708199
vt 0.204631 0.664641
vt 0.207537 0.665274
vt 0.207517 0.687189
vt 0.204368 0.688099
vt 0.236889 0.052978
vt 0.423554 0.003836
vt 0.425054 0.005590
vt 0.232841 0.076772
vt 0.007115 0.003836
vt 0.193739 0.053781
vt 0.196790 0.079004
vt 0.003836 0.005573
vt 0.009877 0.511599
vt 0.015517 0.501171
vt 0.014132 0.508014
vt 0.381800 0.431870
vt 0.384662 0.431260
vt 0.384662 0.624214
vt 0.381800 0.624825
vt 0.046925 0.050788
vt 0.207671 0.700128
vt 0.204368 0.700603
vt 0.352997 0.491736
vt 0.357399 0.498585
vt 0.350096 0.513991
vt 0.346461 0.504292
vt 0.365915 0.513615
vt 0.364573 0.542037
vt 0.362988 0.527524
vt 0.341075 0.529899
vt 0.335848 0.520733
vt 0.350723 0.475634
vt 0.361553 0.474449
vt 0.353867 0.481691
vt 0.037753 0.527737
vt 0.031985 0.541101
vt 0.033021 0.532810
vt 0.364907 0.482724
vt 0.365118 0.491728
vt 0.361306 0.503022
vt 0.366117 0.499206
vt 0.020238 0.495986
vt 0.029098 0.511622
vt 0.024376 0.505363
vt 0.346740 0.486520
vt 0.346108 0.496443
vt 0.345973 0.542938
vt 0.356924 0.554493
vt 0.344819 0.555752
vt 0.338091 0.550881
vt 0.331156 0.545084
vt 0.325297 0.537917
vt 0.326461 0.519321
vt 0.322143 0.531062
vt 0.339372 0.503066
vt 0.020553 0.554207
vt 0.025508 0.544072
vt 0.327879 0.662404
vt 0.328047 0.672712
vt 0.320309 0.673426
vt 0.320246 0.662222
vt 0.323589 0.683842
vt 0.318283 0.683803
vt 0.311159 0.671683
vt 0.311499 0.661393
vt 0.312052 0.683156
vt 0.315230 0.651213
vt 0.323435 0.650551
vt 0.325149 0.554971
vt 0.319606 0.545799
vt 0.336840 0.558626
vt 0.331679 0.679320
vt 0.330705 0.687582
vt 0.324538 0.688703
vt 0.316709 0.688167
vt 0.308141 0.690602
vt 0.299860 0.687589
vt 0.302659 0.677528
vt 0.302047 0.668312
vt 0.303205 0.659244
vt 0.305875 0.527540
vt 0.309167 0.514957
vt 0.306763 0.649981
vt 0.052265 0.534693
vt 0.054372 0.527547
vt 0.067861 0.521668
vt 0.064134 0.527970
vt 0.043464 0.518660
vt 0.031913 0.502510
vt 0.345089 0.534844
vt 0.024101 0.488722
vt 0.367773 0.701181
vt 0.372229 0.684852
vt 0.370672 0.694443
vt 0.049873 0.516229
vt 0.047011 0.542184
vt 0.039958 0.548190
vt 0.034119 0.556410
vt 0.351751 0.545275
vt 0.028632 0.483889
vt 0.018620 0.471313
vt 0.009409 0.497740
vt 0.010406 0.488998
vt 0.010970 0.479419
vt 0.010421 0.464242
vt 0.047698 0.693521
vt 0.040190 0.691985
vt 0.044849 0.684587
vt 0.697527 0.736644
vt 0.688845 0.739101
vt 0.693615 0.733617
vt 0.048288 0.714594
vt 0.040839 0.712094
vt 0.160273 0.439645
vt 0.162436 0.453117
vt 0.152810 0.449177
vt 0.153591 0.433651
vt 0.165303 0.463932
vt 0.153117 0.460683
vt 0.143433 0.452074
vt 0.146220 0.437175
vt 0.142967 0.465933
vt 0.364526 0.446077
vt 0.374128 0.455184
vt 0.362419 0.462753
vt 0.173111 0.448782
vt 0.169226 0.464205
vt 0.005706 0.480000
vt 0.003836 0.469038
vt 0.170525 0.473251
vt 0.173111 0.481215
vt 0.166355 0.477077
vt 0.154400 0.475592
vt 0.143832 0.478556
vt 0.138165 0.482541
vt 0.138123 0.475430
vt 0.137385 0.466704
vt 0.132335 0.459650
vt 0.299860 0.731193
vt 0.301467 0.727223
vt 0.307999 0.730569
vt 0.702505 0.723814
vt 0.688845 0.721730
vt 0.689178 0.713808
vt 0.701917 0.715656
vt 0.701821 0.731014
vt 0.689864 0.727765
vt 0.064113 0.696872
vt 0.060514 0.696580
vt 0.062161 0.682773
vt 0.055907 0.541802
vt 0.067019 0.536515
vt 0.055827 0.696394
vt 0.058331 0.682768
vt 0.306814 0.715851
vt 0.308743 0.712025
vt 0.312748 0.716405
vt 0.060324 0.667651
vt 0.055988 0.672107
vt 0.057337 0.652200
vt 0.306803 0.542027
vt 0.310122 0.533857
vt 0.303074 0.723252
vt 0.305166 0.719066
vt 0.314138 0.727059
vt 0.318348 0.733857
vt 0.065898 0.509563
vt 0.329130 0.497489
vt 0.051803 0.684372
vt 0.047698 0.684493
vt 0.047699 0.675465
vt 0.051844 0.673786
vt 0.050549 0.656267
vt 0.046750 0.657711
vt 0.045801 0.639958
vt 0.049255 0.638749
vt 0.064298 0.673025
vt 0.063799 0.650863
vt 0.358780 0.543756
vt 0.069852 0.660570
vt 0.066530 0.652905
vt 0.068779 0.630877
vt 0.070904 0.655333
vt 0.068751 0.684428
vt 0.064207 0.684748
vt 0.068797 0.673923
vt 0.315829 0.724331
vt 0.164099 0.541346
vt 0.155361 0.534507
vt 0.156120 0.512244
vt 0.164710 0.524811
vt 0.149284 0.541335
vt 0.148985 0.525503
vt 0.155964 0.491501
vt 0.165938 0.492222
vt 0.145856 0.492662
vt 0.307043 0.700527
vt 0.300290 0.695588
vt 0.740747 0.379026
vt 0.736517 0.375243
vt 0.736517 0.357256
vt 0.743206 0.360614
vt 0.321666 0.700273
vt 0.314708 0.695697
vt 0.343170 0.558991
vt 0.359347 0.558526
vt 0.012427 0.540023
vt 0.019239 0.572157
vt 0.003836 0.577745
vt 0.142892 0.524507
vt 0.140722 0.496526
vt 0.171285 0.495079
vt 0.171395 0.523441
vt 0.732453 0.242666
vt 0.739130 0.244042
vt 0.741647 0.263955
vt 0.735171 0.258483
vt 0.114913 0.629725
vt 0.121463 0.623511
vt 0.115179 0.669710
vt 0.114514 0.670342
vt 0.160796 0.563186
vt 0.168014 0.558510
vt 0.161732 0.607840
vt 0.160998 0.608315
vt 0.114514 0.609191
vt 0.119574 0.606583
vt 0.186571 0.664641
vt 0.193781 0.679351
vt 0.196696 0.701204
vt 0.180783 0.702183
vt 0.715544 0.670669
vt 0.723411 0.655451
vt 0.728294 0.695181
vt 0.711909 0.690288
vt 0.374128 0.577542
vt 0.359388 0.575833
vt 0.155212 0.560942
vt 0.146176 0.557041
vt 0.210212 0.571589
vt 0.210853 0.571426
vt 0.210853 0.572666
vt 0.210048 0.572949
vt 0.210048 0.562111
vt 0.210866 0.562155
vt 0.210872 0.563754
vt 0.210048 0.563652
vt 0.713573 0.738180
vt 0.711909 0.737683
vt 0.355948 0.626211
vt 0.354451 0.626038
vt 0.733111 0.304112
vt 0.732453 0.303556
vt 0.158948 0.608167
vt 0.158030 0.607770
vt 0.196696 0.747605
vt 0.195079 0.747704
vt 0.022173 0.622637
vt 0.020609 0.623206
vt 0.372895 0.698488
vt 0.380680 0.696598
vt 0.385463 0.707832
vt 0.372363 0.705451
vt 0.372928 0.714064
vt 0.380398 0.720181
vt 0.373889 0.724022
vt 0.371496 0.718167
vt 0.357867 0.518811
vt 0.359581 0.522681
vt 0.358981 0.533325
vt 0.355070 0.527960
vt 0.352025 0.534669
vt 0.355584 0.538770
vt 0.354903 0.545247
vt 0.351586 0.538971
vt 0.030417 0.729293
vt 0.021136 0.735048
vt 0.015493 0.720971
vt 0.030012 0.721117
vt 0.029772 0.714783
vt 0.023745 0.711126
vt 0.030397 0.709292
vt 0.031175 0.707923
vt 0.023955 0.532739
vt 0.020577 0.538369
vt 0.017479 0.531713
vt 0.021262 0.525653
vt 0.017804 0.516444
vt 0.016289 0.520636
vt 0.013836 0.514012
vt 0.016372 0.511663
vt 0.032063 0.520009
vt 0.018320 0.501194
vt 0.017900 0.542826
vt 0.362099 0.509866
vt 0.367773 0.718680
vt 0.368938 0.710205
vt 0.013318 0.525458
vt 0.358801 0.503498
vt 0.117730 0.705178
vt 0.114514 0.705511
vt 0.114514 0.678014
vt 0.674725 0.716658
vt 0.669109 0.723856
vt 0.667763 0.718378
vt 0.668440 0.713808
vt 0.681173 0.728362
vt 0.668253 0.733679
vt 0.673344 0.741611
vt 0.667763 0.741311
vt 0.029489 0.534166
vt 0.024774 0.538324
vt 0.028621 0.527953
vt 0.020673 0.547210
vt 0.024231 0.507391
vt 0.022145 0.510170
vt 0.019163 0.504130
vt 0.020803 0.501248
vt 0.027683 0.514076
vt 0.024731 0.516014
vt 0.030164 0.521424
vt 0.028848 0.523373
vt 0.033088 0.525927
vt 0.030961 0.528201
vt 0.031175 0.734440
vt 0.028792 0.740248
vt 0.741256 0.561040
vt 0.737203 0.555228
vt 0.736517 0.552860
vt 0.741256 0.553774
vt 0.350577 0.519604
vt 0.346504 0.531692
vt 0.436375 0.642393
vt 0.440269 0.649530
vt 0.440960 0.658820
vt 0.432841 0.655210
vt 0.440960 0.638750
vt 0.440587 0.643762
vt 0.359378 0.513133
vt 0.361867 0.515859
vt 0.370878 0.711545
vt 0.369991 0.716274
vt 0.350680 0.516279
vt 0.352986 0.518643
vt 0.348413 0.526403
vt 0.347949 0.523879
vt 0.353946 0.509655
vt 0.355638 0.512071
vt 0.356756 0.503731
vt 0.357990 0.506680
vt 0.373442 0.692745
vt 0.375768 0.693579
vt 0.068105 0.507381
vt 0.073295 0.520081
vt 0.307660 0.512907
vt 0.317840 0.498327
vt 0.336768 0.463843
vt 0.339323 0.451822
vt 0.358165 0.460155
vt 0.358128 0.460288
vt 0.041600 0.500375
vt 0.056435 0.496072
vt 0.299974 0.526214
vt 0.742844 0.210654
vt 0.737901 0.209532
vt 0.741448 0.197208
vt 0.070101 0.526440
vt 0.088419 0.672316
vt 0.081034 0.675001
vt 0.083541 0.633291
vt 0.093911 0.624797
vt 0.326800 0.471374
vt 0.072987 0.534986
vt 0.300763 0.540726
vt 0.304083 0.532554
vt 0.307060 0.644672
vt 0.315527 0.645904
vt 0.036405 0.500182
vt 0.327971 0.634682
vt 0.330272 0.641969
vt 0.323732 0.645240
vt 0.323114 0.634409
vt 0.307833 0.633883
vt 0.299860 0.640928
vt 0.302279 0.634070
vt 0.315618 0.633941
vt 0.099565 0.695398
vt 0.094598 0.697047
vt 0.092288 0.675546
vt 0.097344 0.676806
vt 0.088386 0.694028
vt 0.106787 0.705341
vt 0.101562 0.709774
vt 0.106842 0.689975
vt 0.093887 0.711705
vt 0.086266 0.709327
vt 0.081088 0.704383
vt 0.080966 0.690878
vt 0.299860 0.514489
vt 0.307771 0.497535
vt 0.106842 0.625195
vt 0.102297 0.621261
vt 0.102181 0.608869
vt 0.104237 0.606583
vt 0.017498 0.651812
vt 0.003836 0.657912
vt 0.028834 0.632028
vt 0.031175 0.630877
vt 0.347493 0.441319
vt 0.353724 0.437978
vt 0.366033 0.449208
vt 0.365999 0.449226
vt 0.082519 0.612639
vt 0.090676 0.611584
vt 0.440960 0.631079
vt 0.433406 0.627683
vt 0.440960 0.604923
vt 0.097828 0.615435
vt 0.321963 0.441302
vt 0.320909 0.445294
vt 0.441722 0.742491
vt 0.435187 0.742768
vt 0.437477 0.730234
vt 0.210872 0.433651
vt 0.210872 0.459965
vt 0.210523 0.446643
vt 0.157777 0.704762
vt 0.164842 0.700174
vt 0.167915 0.725983
vt 0.160744 0.727052
vt 0.168908 0.701622
vt 0.171836 0.724961
vt 0.173111 0.704640
vt 0.173111 0.721947
vt 0.149229 0.710993
vt 0.152075 0.725131
vt 0.333722 0.431260
vt 0.097964 0.611088
vt 0.739644 0.183880
vt 0.733754 0.182970
vt 0.732453 0.165420
vt 0.740166 0.169862
vt 0.050834 0.449816
vt 0.036034 0.448073
vt 0.026490 0.442470
vt 0.038006 0.433651
vt 0.014239 0.450172
vt 0.014095 0.450088
vt 0.741015 0.524420
vt 0.736517 0.524420
vt 0.739741 0.513088
vt 0.739858 0.513088
vt 0.073294 0.693118
vt 0.068704 0.694995
vt 0.073294 0.684109
vt 0.354341 0.468261
vt 0.339340 0.463569
vt 0.339405 0.463279
vt 0.073294 0.675101
vt 0.073165 0.669388
vt 0.054348 0.654824
vt 0.052708 0.637540
vt 0.422039 0.714580
vt 0.425231 0.716304
vt 0.422049 0.730782
vt 0.422039 0.730777
vt 0.055908 0.684250
vt 0.051762 0.694957
vt 0.210150 0.597288
vt 0.210067 0.597113
vt 0.210166 0.596920
vt 0.210166 0.597214
vt 0.348732 0.481077
vt 0.339355 0.463667
vt 0.059569 0.723232
vt 0.068060 0.723282
vt 0.073069 0.737873
vt 0.072917 0.737813
vt 0.073294 0.722266
vt 0.073294 0.737897
vt 0.210166 0.613135
vt 0.210048 0.613144
vt 0.210048 0.612870
vt 0.210165 0.612902
vt 0.736517 0.443776
vt 0.736517 0.433200
vt 0.746604 0.440541
vt 0.746604 0.440817
vt 0.343056 0.494793
vt 0.333257 0.488650
vt 0.333352 0.488436
vt 0.736517 0.494593
vt 0.741403 0.494593
vt 0.739687 0.505415
vt 0.739560 0.505416
vt 0.746869 0.198362
vt 0.744136 0.197859
vt 0.745429 0.185064
vt 0.748341 0.185562
vt 0.743751 0.224078
vt 0.741491 0.223491
vt 0.745396 0.211162
vt 0.704237 0.680794
vt 0.698469 0.681104
vt 0.700264 0.667766
vt 0.739306 0.630427
vt 0.736517 0.627644
vt 0.739306 0.616606
vt 0.739310 0.608934
vt 0.737913 0.607544
vt 0.739310 0.595301
vt 0.697028 0.681181
vt 0.695783 0.675220
vt 0.696513 0.669300
vt 0.692651 0.669888
vt 0.686354 0.655991
vt 0.694119 0.656729
vt 0.681333 0.691108
vt 0.681254 0.691112
vt 0.681158 0.690797
vt 0.209194 0.518770
vt 0.210033 0.519665
vt 0.209240 0.535720
vt 0.209194 0.535670
vt 0.210092 0.620962
vt 0.210054 0.620954
vt 0.210048 0.620816
vt 0.210092 0.620822
vt 0.208343 0.467637
vt 0.210872 0.469659
vt 0.208385 0.485620
vt 0.208343 0.485615
vt 0.425054 0.705118
vt 0.422039 0.706908
vt 0.422039 0.681140
vt 0.422094 0.681123
vt 0.667804 0.669589
vt 0.667763 0.669455
vt 0.125559 0.697059
vt 0.125557 0.697004
vt 0.125581 0.696963
vt 0.334222 0.475058
vt 0.347104 0.482680
vt 0.346965 0.483295
vt 0.210872 0.520560
vt 0.209286 0.535769
vt 0.688789 0.670477
vt 0.681172 0.690484
vt 0.680960 0.690517
vt 0.695586 0.681259
vt 0.045989 0.473594
vt 0.744802 0.325876
vt 0.747452 0.328411
vt 0.736576 0.349584
vt 0.736561 0.349570
vt 0.365955 0.449283
vt 0.137312 0.708595
vt 0.125557 0.742455
vt 0.125622 0.696876
vt 0.741011 0.322275
vt 0.736541 0.349551
vt 0.736517 0.315692
vt 0.736517 0.349515
vt 0.739272 0.467313
vt 0.736517 0.466784
vt 0.739159 0.451448
vt 0.739272 0.451469
vt 0.448257 0.742214
vt 0.444989 0.742353
vt 0.441853 0.729669
vt 0.444003 0.729584
vt 0.439703 0.729754
vt 0.208305 0.494358
vt 0.210872 0.493292
vt 0.210872 0.511064
vt 0.210791 0.511098
vt 0.747948 0.211670
vt 0.749601 0.198865
vt 0.210166 0.605198
vt 0.210122 0.605192
vt 0.210060 0.605095
vt 0.210160 0.589248
vt 0.210073 0.589243
vt 0.210067 0.588838
vt 0.210160 0.588841
vt 0.117372 0.740471
vt 0.104476 0.740471
vt 0.115846 0.719377
vt 0.116252 0.719377
vt 0.007821 0.731882
vt 0.004868 0.732249
vt 0.004868 0.707934
vt 0.004961 0.707923
vt 0.037763 0.460952
vt 0.017183 0.463932
vt 0.017128 0.463526
vt 0.210078 0.644161
vt 0.210066 0.644166
vt 0.210066 0.644113
vt 0.210077 0.644109
vt 0.096804 0.719377
vt 0.096804 0.736921
vt 0.080966 0.729811
vt 0.080966 0.729759
vt 0.020535 0.468319
vt 0.038742 0.468824
vt 0.038766 0.468870
vt 0.208165 0.725320
vt 0.204368 0.726166
vt 0.204368 0.708277
vt 0.204379 0.708275
vt 0.043095 0.722295
vt 0.046044 0.722324
vt 0.043350 0.738841
vt 0.043306 0.738840
vt 0.051897 0.722265
vt 0.043439 0.738840
vt 0.040146 0.722265
vt 0.043261 0.738840
vt 0.144984 0.696970
vt 0.145113 0.696876
vt 0.494608 0.738577
vt 0.494608 0.720318
vt 0.507411 0.723760
vt 0.507411 0.724035
vt 0.210174 0.581166
vt 0.210078 0.581156
vt 0.210067 0.580621
vt 0.210174 0.580626
vt 0.736517 0.408543
vt 0.744495 0.419202
vt 0.736844 0.425528
vt 0.736517 0.425090
vt 0.736517 0.579165
vt 0.739272 0.577726
vt 0.739272 0.587570
vt 0.739159 0.587629
vt 0.144984 0.747790
vt 0.144984 0.734724
vt 0.156658 0.747537
vt 0.156658 0.748074
vt 0.094272 0.233889
vt 0.425054 0.417431
vt 0.339351 0.684852
vt 0.350057 0.687634
vt 0.358914 0.688110
vt 0.016605 0.506072
vt 0.486936 0.727172
vt 0.484204 0.729739
vt 0.484204 0.720318
vt 0.732430 0.643630
vt 0.725970 0.647779
vt 0.725970 0.638396
vt 0.345324 0.528203
vt 0.347229 0.530437
vt 0.370721 0.722884
vt 0.371315 0.730669
vt 0.353872 0.507722
vt 0.371994 0.690015
vt 0.371664 0.696392
vt 0.370335 0.703480
vt 0.347746 0.536352
vt 0.012439 0.452749
vt 0.043360 0.676456
vt 0.030469 0.493946
vt 0.736517 0.486921
vt 0.736517 0.474985
vt 0.740936 0.479831
vt 0.699674 0.733829
vt 0.746557 0.400871
vt 0.736517 0.400638
vt 0.746557 0.386698
vt 0.310646 0.734135
vt 0.306795 0.734274
vt 0.302944 0.734413
vt 0.310672 0.708199
vt 0.318348 0.718022
vt 0.317718 0.719599
vt 0.317088 0.721177
vt 0.060534 0.633461
vt 0.485206 0.736506
vt 0.210872 0.548760
vt 0.208837 0.554439
vt 0.208837 0.543441
vt 0.359987 0.507795
vt 0.346608 0.522363
vt 0.373421 0.689454
vt 0.031105 0.700251
vt 0.017471 0.679082
vt 0.019716 0.674876
vt 0.031175 0.699531
vt 0.331676 0.486274
vt 0.732453 0.232908
vt 0.735521 0.209251
vt 0.736198 0.234994
vt 0.435187 0.717016
vt 0.739234 0.223287
vt 0.437684 0.717016
vt 0.704237 0.655451
vt 0.702383 0.704712
vt 0.700426 0.692908
vt 0.702339 0.692713
vt 0.704237 0.706136
vt 0.736517 0.606155
vt 0.700528 0.703288
vt 0.696615 0.692351
vt 0.698426 0.692170
vt 0.692702 0.681414
vt 0.694144 0.681336
vt 0.681175 0.691117
vt 0.210090 0.651867
vt 0.210066 0.651867
vt 0.210072 0.651838
vt 0.736534 0.349565
vt 0.210048 0.628703
vt 0.210048 0.628634
vt 0.210076 0.628686
vt 0.210048 0.636403
vt 0.210059 0.636375
vt 0.210059 0.636437
vt 0.040546 0.487102
vt 0.210078 0.605187
vt 0.209990 0.605172
vt 0.209990 0.604960
vt 0.210135 0.605079
s 0
usemtl Material
f 2/1/1 1/2/1 12/3/1
f 12/3/1 3/4/1 2/1/1
f 11/5/1 3/4/1 12/3/1
f 11/5/1 4/6/1 3/4/1
f 10/7/1 4/6/1 11/5/1
f 10/7/1 5/8/1 4/6/1
f 9/9/1 5/8/1 10/7/1
f 9/9/1 6/10/1 5/8/1
f 8/11/1 6/10/1 9/9/1
f 8/11/1 7/12/1 6/10/1
f 12/3/1 1/2/1 13/13/1
f 15/14/2 25/15/2 14/16/2
f 25/15/2 15/14/2 16/17/2
f 24/18/2 25/15/2 16/17/2
f 24/18/2 16/17/2 17/19/2
f 23/20/2 24/18/2 17/19/2
f 23/20/2 17/19/2 18/21/2
f 22/22/2 23/20/2 18/21/2
f 22/22/2 18/21/2 19/23/2
f 21/24/2 22/22/2 19/23/2
f 21/24/2 19/23/2 20/25/2
f 25/15/2 26/26/2 14/16/2
f 4/27/3 5/28/3 18/29/3 17/30/3
f 12/31/4 13/32/4 26/33/4 25/34/4
f 5/28/5 6/35/5 19/36/5 18/29/5
f 13/32/6 1/37/6 14/38/6 26/33/6
f 6/39/7 7/40/7 20/41/7 19/42/7
f 7/40/8 8/43/8 21/44/8 20/41/8
f 8/43/9 9/45/9 22/46/9 21/44/9
f 1/37/10 2/47/10 15/48/10 14/38/10
f 9/49/11 10/50/11 23/51/11 22/52/11
f 2/53/12 3/54/12 16/55/12 15/56/12
f 10/50/13 11/57/13 24/58/13 23/51/13
f 3/54/14 4/27/14 17/30/14 16/55/14
f 11/57/15 12/59/15 25/60/15 24/58/15
f 27/61/16 36/62/16 47/63/16 35/64/16
f 36/62/17 28/65/17 37/66/17 47/63/17
f 47/63/18 37/66/18 30/67/18 38/68/18
f 35/69/19 47/70/19 38/71/19 29/72/19
f 29/72/20 38/71/20 48/73/20 39/74/20
f 38/71/21 30/75/21 40/76/21 48/73/21
f 48/77/22 40/78/22 34/79/22 41/80/22
f 39/81/23 48/77/23 41/80/23 33/82/23
f 33/82/24 41/80/24 49/83/24 42/84/24
f 41/80/25 34/79/25 43/85/25 49/83/25
f 49/83/26 43/85/26 32/86/26 44/87/26
f 42/84/27 49/83/27 44/87/27 31/88/27
f 31/89/28 44/90/28 50/91/28 45/92/28
f 44/90/29 32/93/29 46/94/29 50/91/29
f 50/91/30 46/94/30 28/95/30 36/96/30
f 45/92/31 50/91/31 36/96/31 27/97/31
f 29/72/32 39/74/32 51/98/32 35/69/32
f 39/99/33 33/100/33 42/101/33 51/102/33
f 51/103/34 42/104/34 31/89/34 45/92/34
f 35/105/35 51/103/35 45/92/35 27/97/35
f 43/106/36 34/107/36 56/108/36 57/109/36
f 34/79/37 40/78/37 55/110/37 56/111/37
f 46/94/38 32/93/38 58/112/38 59/113/38
f 37/114/39 28/115/39 52/116/39 53/117/39
f 53/117/40 52/116/40 60/118/40 61/119/40
f 55/120/41 54/121/41 62/122/41 63/123/41
f 57/124/42 56/125/42 64/126/42 65/127/42
f 59/113/43 58/112/43 66/128/43 67/129/43
f 30/67/44 37/66/44 53/130/44 54/131/44
f 28/95/45 46/94/45 59/113/45 52/132/45
f 40/133/46 30/134/46 54/135/46 55/136/46
f 32/86/47 43/85/47 57/137/47 58/138/47
f 61/139/48 60/140/48 68/141/48 69/142/48
f 63/123/49 62/122/49 70/143/49 71/144/49
f 65/127/50 64/126/50 72/145/50 73/146/50
f 67/129/51 66/128/51 74/147/51 75/148/51
f 52/132/52 59/113/52 67/129/52 60/149/52
f 58/112/53 57/150/53 65/151/53 66/128/53
f 56/152/54 55/120/54 63/123/54 64/153/54
f 54/154/55 53/117/55 61/119/55 62/155/55
f 75/148/56 74/147/56 82/156/56 83/157/56
f 70/158/57 69/142/57 77/159/57 78/160/57
f 72/145/58 71/161/58 79/162/58 80/163/58
f 74/164/59 73/146/59 81/165/59 82/166/59
f 60/149/60 67/129/60 75/148/60 68/167/60
f 66/168/61 65/127/61 73/146/61 74/164/61
f 64/153/62 63/123/62 71/144/62 72/169/62
f 62/170/63 61/139/63 69/142/63 70/158/63
f 77/159/64 76/171/64 84/172/64 85/173/64
f 79/174/65 78/175/65 86/176/65 87/177/65
f 81/178/66 80/179/66 88/180/66 89/181/66
f 83/157/67 82/156/67 90/182/67 91/183/67
f 73/146/68 72/145/68 80/163/68 81/165/68
f 71/144/69 70/143/69 78/175/69 79/174/69
f 69/142/70 68/141/70 76/171/70 77/159/70
f 68/141/71 75/184/71 83/185/71 76/171/71
f 88/186/72 87/177/72 92/187/72 89/188/72
f 87/177/73 86/176/73 85/189/73 92/187/73
f 92/190/74 85/173/74 84/172/74 91/191/74
f 89/192/75 92/193/75 91/194/75 90/195/75
f 76/171/76 83/185/76 91/191/76 84/172/76
f 82/166/77 81/165/77 89/196/77 90/197/77
f 80/163/78 79/162/78 87/198/78 88/199/78
f 78/175/79 77/200/79 85/189/79 86/176/79
f 96/201/80 105/202/80 100/203/80 109/204/80
f 98/205/81 102/206/81 101/207/81 97/208/81
f 98/209/82 107/210/82 95/211/82
f 112/212/83 109/204/83 94/213/83
f 101/214/84 103/215/84 99/216/84 97/217/84
f 105/218/85 96/219/85 95/211/85
f 107/210/86 105/218/86 95/211/86
f 109/204/87 100/203/87 106/220/87 94/213/87
f 93/221/88 96/222/88 112/223/88
f 108/224/89 107/225/89 99/226/89 103/227/89
f 97/228/90 99/229/90 107/210/90 98/209/90
f 103/230/91 101/231/91 102/232/91 108/233/91
f 114/234/92 116/235/92 111/236/92
f 98/205/93 93/237/93 102/206/93
f 113/238/94 115/239/94 116/240/94 114/241/94
f 119/242/95 117/243/95 118/244/95 120/245/95
f 117/246/96 113/247/96 114/248/96 118/249/96
f 115/250/97 119/251/97 120/252/97 116/253/97
f 118/249/98 114/248/98 105/218/98 107/210/98
f 152/254/99 188/255/99 110/256/99
f 115/257/100 113/258/100 117/259/100 119/260/100
f 108/233/101 106/261/101 116/253/101 120/252/101
f 120/245/102 118/244/102 107/262/102 108/263/102
f 162/264/103 163/265/103 166/266/103 165/267/103
f 135/268/104 136/269/104 104/270/104
f 165/267/105 166/266/105 169/271/105 168/272/105
f 121/273/106 132/274/106 419/275/106
f 181/276/107 182/277/107 420/278/107
f 132/274/108 133/279/108 163/265/108 162/264/108
f 133/279/109 134/280/109 164/281/109 163/265/109
f 134/280/110 122/282/110 135/268/110 164/281/110
f 187/283/111 184/284/111 421/285/111
f 131/286/112 162/264/112 422/287/112
f 170/288/113 137/289/113 124/290/113 138/291/113
f 169/271/114 170/288/114 138/291/114 139/292/114
f 168/272/115 169/271/115 139/292/115 140/293/115
f 129/294/116 168/272/116 140/293/116 123/295/116
f 130/296/117 165/267/117 168/272/117 129/294/117
f 182/277/118 150/297/118 423/298/118
f 171/299/119 172/300/119 175/301/119 174/302/119
f 172/300/120 173/303/120 176/304/120 175/301/120
f 174/302/121 175/301/121 178/305/121 177/306/121
f 175/301/122 176/304/122 179/307/122 178/305/122
f 171/299/123 174/302/123 289/308/123 288/309/123
f 140/293/124 139/292/124 172/310/124 171/311/124
f 139/292/125 138/291/125 173/312/125 172/310/125
f 138/313/126 124/314/126 141/315/126 173/303/126
f 173/303/127 141/315/127 142/316/127 176/304/127
f 176/304/128 142/316/128 143/317/128 179/307/128
f 179/307/129 143/317/129 128/318/129 144/319/129
f 178/305/130 179/307/130 144/319/130 145/320/130
f 177/306/131 178/305/131 145/320/131 146/321/131
f 129/294/132 123/295/132 277/322/132 278/323/132
f 174/302/133 177/306/133 290/324/133 289/308/133
f 146/325/134 127/326/134 281/327/134 285/328/134
f 180/329/135 181/276/135 184/284/135 183/330/135
f 170/288/136 169/271/136 424/331/136
f 183/330/137 184/284/137 187/283/137 186/332/137
f 166/333/138 163/334/138 425/335/138
f 127/326/139 146/325/139 180/329/139 149/336/139
f 146/325/140 145/337/140 181/276/140 180/329/140
f 145/337/141 144/338/141 182/277/141 181/276/141
f 144/338/142 128/339/142 150/297/142 182/277/142
f 137/289/143 170/288/143 426/340/143
f 147/341/144 186/332/144 427/342/144
f 188/255/145 152/254/145 126/343/145 153/344/145
f 187/283/146 188/255/146 153/344/146 154/345/146
f 186/332/147 187/283/147 154/345/147 155/346/147
f 148/347/148 183/348/148 428/349/148
f 125/350/149 155/351/149 429/352/149
f 149/353/150 180/354/150 183/348/150 148/347/150
f 189/355/151 190/356/151 193/357/151 192/358/151
f 190/356/152 191/359/152 194/360/152 193/357/152
f 192/358/153 193/357/153 196/361/153 195/362/153
f 193/357/154 194/360/154 197/363/154 196/361/154
f 156/364/155 195/365/155 430/366/155
f 155/367/156 154/368/156 190/356/156 189/355/156
f 154/345/157 153/344/157 191/369/157 190/370/157
f 153/371/158 126/372/158 159/373/158 191/359/158
f 191/359/159 159/373/159 160/374/159 194/360/159
f 194/360/160 160/374/160 161/375/160 197/363/160
f 197/363/161 161/375/161 122/376/161 134/377/161
f 196/361/162 197/363/162 134/377/162 133/378/162
f 195/362/163 196/361/163 133/378/163 132/379/163
f 148/380/164 339/381/164 431/382/164
f 157/383/165 192/384/165 195/385/165 156/386/165
f 158/387/166 189/388/166 192/384/166 157/383/166
f 198/389/167 199/390/167 432/391/167
f 177/392/168 146/325/168 285/328/168 290/393/168
f 199/390/169 200/394/169 433/395/169
f 198/396/170 344/397/170 434/398/170
f 202/399/171 203/400/171 435/401/171
f 140/293/172 171/311/172 288/402/172 280/403/172
f 200/404/173 199/405/173 295/406/173 296/407/173
f 127/326/174 149/336/174 287/408/174 281/327/174
f 130/296/175 129/294/175 278/323/175 279/409/175
f 348/410/176 334/411/176 147/412/176 340/413/176
f 347/414/177 333/415/177 125/416/177 336/417/177
f 201/418/178 202/399/178 436/419/178
f 136/269/179 137/289/179 437/420/179
f 346/421/180 342/422/180 156/423/180 335/424/180
f 345/425/181 337/426/181 201/418/181 343/427/181
f 199/405/182 198/396/182 294/428/182 295/406/182
f 204/429/183 205/430/183 208/431/183 207/432/183
f 205/430/184 206/433/184 209/434/184 208/431/184
f 207/432/185 208/431/185 211/435/185 210/436/185
f 208/431/186 209/434/186 212/437/186 211/435/186
f 128/318/187 143/317/187 204/438/187 150/439/187
f 143/440/188 142/441/188 205/442/188 204/443/188
f 142/316/189 141/315/189 206/444/189 205/445/189
f 141/446/190 124/290/190 137/289/190 206/447/190
f 151/448/191 150/297/191 215/449/191 216/450/191
f 209/434/192 136/451/192 135/452/192 212/437/192
f 212/437/193 135/452/193 122/376/193 161/375/193
f 211/435/194 212/437/194 161/375/194 160/374/194
f 210/436/195 211/435/195 160/374/195 159/373/195
f 152/453/196 210/436/196 159/373/196 126/372/196
f 151/454/197 207/432/197 210/436/197 152/453/197
f 150/455/198 204/456/198 217/457/198 215/458/198
f 219/459/199 214/460/199 222/461/199 227/462/199
f 218/463/200 216/464/200 224/465/200 226/466/200
f 206/467/201 137/468/201 214/460/201 219/459/201
f 209/469/202 206/470/202 219/471/202 220/472/202
f 204/473/203 207/474/203 218/475/203 217/476/203
f 207/432/204 151/454/204 216/464/204 218/463/204
f 137/289/205 136/269/205 213/477/205 214/478/205
f 136/451/206 209/434/206 220/479/206 213/480/206
f 227/481/207 222/482/207 221/483/207 228/484/207
f 223/485/208 225/486/208 226/487/208 224/488/208
f 217/476/209 218/475/209 226/489/209 225/490/209
f 214/478/210 213/477/210 221/491/210 222/492/210
f 215/458/211 217/457/211 225/493/211 223/494/211
f 213/480/212 220/479/212 228/495/212 221/496/212
f 220/472/213 219/471/213 227/497/213 228/498/213
f 216/450/214 215/449/214 223/499/214 224/500/214
f 276/501/215 251/502/215 238/503/215 252/504/215
f 275/505/216 254/506/216 240/507/216 255/508/216
f 274/509/217 185/510/217 230/511/217 257/512/217
f 273/513/218 167/514/218 231/515/218 258/516/218
f 272/517/219 261/518/219 244/519/219 262/520/219
f 271/521/220 264/522/220 246/523/220 265/524/220
f 270/525/221 247/526/221 233/527/221 267/528/221
f 269/529/222 248/530/222 234/531/222 268/532/222
f 184/284/223 181/276/223 438/533/223
f 188/255/224 187/283/224 439/534/224
f 150/297/225 151/448/225 440/535/225
f 164/281/226 135/268/226 441/536/226
f 169/537/227 166/333/227 442/538/227
f 151/448/228 152/254/228 443/539/228
f 163/265/229 164/281/229 444/540/229
f 295/541/230 294/542/230 445/543/230
f 264/544/231 269/545/231 268/546/231 246/547/231
f 244/548/232 267/549/232 269/545/232 264/544/232
f 267/528/233 233/527/233 248/530/233 269/529/233
f 261/550/234 270/551/234 267/549/234 244/548/234
f 242/552/235 266/553/235 270/525/235 261/554/235
f 266/553/236 232/555/236 247/526/236 270/525/236
f 263/556/237 271/557/237 265/558/237 245/559/237
f 243/560/238 262/561/238 271/557/238 263/556/238
f 262/520/239 244/519/239 264/522/239 271/521/239
f 260/562/240 272/563/240 262/561/240 243/560/240
f 241/564/241 259/565/241 272/563/241 260/562/241
f 259/566/242 242/567/242 261/518/242 272/517/242
f 254/568/243 273/569/243 258/570/243 240/571/243
f 238/572/244 257/512/244 273/513/244 254/573/244
f 257/512/245 230/511/245 167/514/245 273/513/245
f 251/574/246 274/575/246 257/576/246 238/577/246
f 236/578/247 256/579/247 274/575/247 251/574/247
f 256/580/248 229/581/248 185/510/248 274/509/248
f 253/582/249 275/505/249 255/508/249 239/583/249
f 237/584/250 252/585/250 275/586/250 253/587/250
f 252/504/251 238/503/251 254/506/251 275/505/251
f 250/588/252 276/589/252 252/585/252 237/584/252
f 235/590/253 249/591/253 276/589/253 250/588/253
f 249/592/254 236/593/254 251/502/254 276/501/254
f 281/327/255 287/408/255 307/594/255 301/595/255
f 279/409/256 278/323/256 298/596/256 299/597/256
f 367/598/257 283/599/257 373/600/257 372/601/257
f 287/408/258 286/602/258 306/603/258 307/594/258
f 278/323/259 277/322/259 297/604/259 298/596/259
f 365/605/260 358/606/260 446/607/260
f 285/328/261 281/327/261 301/595/261 305/608/261
f 316/609/262 306/610/262 317/611/262 320/612/262
f 279/409/263 299/597/263 447/613/263
f 290/393/264 285/328/264 305/608/264 310/614/264
f 280/403/265 288/402/265 308/615/265 300/616/265
f 289/308/266 290/324/266 310/617/266 309/618/266
f 123/295/267 140/293/267 280/403/267 277/322/267
f 149/336/268 148/619/268 286/602/268 287/408/268
f 297/620/269 300/621/269 308/622/269 304/623/269
f 302/624/270 310/617/270 305/625/270 301/626/270
f 303/627/271 309/618/271 310/617/271 302/624/271
f 304/623/272 308/622/272 309/618/272 303/627/272
f 311/628/273 312/629/273 315/630/273 314/631/273
f 312/629/274 313/632/274 316/609/274 315/630/274
f 297/633/275 304/634/275 311/628/275 298/635/275
f 304/634/276 303/636/276 312/629/276 311/628/276
f 303/636/277 302/637/277 313/632/277 312/629/277
f 302/637/278 301/638/278 307/639/278 313/632/278
f 313/632/279 307/639/279 306/610/279 316/609/279
f 298/596/280 311/640/280 314/641/280 299/597/280
f 277/322/281 280/403/281 300/616/281 297/604/281
f 288/309/282 289/308/282 309/618/282 308/622/282
f 282/642/283 291/643/283 323/644/283 322/645/283
f 292/646/284 284/647/284 324/648/284 326/649/284
f 321/650/285 324/651/285 390/652/285 387/653/285
f 320/612/286 317/611/286 327/654/286 330/655/286
f 296/656/287 295/657/287 448/658/287
f 314/631/288 315/630/288 293/659/288 291/643/288
f 299/597/289 314/641/289 291/660/289 282/661/289
f 359/662/290 296/663/290 449/664/290
f 315/630/291 316/609/291 320/612/291 293/659/291
f 393/665/292 392/666/292 357/667/292
f 329/668/293 326/669/293 325/670/293 330/671/293
f 326/669/294 324/672/294 323/673/294 325/670/294
f 324/672/295 321/674/295 322/675/295 323/673/295
f 328/676/296 329/668/296 330/671/296 327/677/296
f 283/599/297 282/661/297 322/678/297 321/650/297
f 291/643/298 293/659/298 325/679/298 323/644/298
f 319/680/299 292/681/299 326/682/299 329/683/299
f 317/684/300 318/685/300 328/686/300 327/687/300
f 293/659/301 320/612/301 330/655/301 325/679/301
f 328/686/302 318/685/302 413/688/302 411/689/302
f 331/690/303 345/691/303 356/692/303 353/693/303
f 130/694/304 344/695/304 345/425/304 331/696/304
f 344/695/305 198/389/305 337/426/305 345/425/305
f 335/697/306 121/273/306 350/698/306 351/699/306
f 131/700/307 343/427/307 346/421/307 332/701/307
f 343/427/308 201/418/308 342/422/308 346/421/308
f 341/702/309 347/414/309 336/417/309 158/703/309
f 203/400/310 340/413/310 347/414/310 341/702/310
f 333/704/311 347/705/311 408/706/311 405/707/311
f 338/708/312 348/410/312 340/413/312 203/400/312
f 200/394/313 339/709/313 348/410/313 338/708/313
f 339/709/314 148/347/314 334/411/314 348/410/314
f 349/710/315 352/711/315 351/712/315 350/713/315
f 121/273/316 332/714/316 349/715/316 350/698/316
f 332/716/317 346/717/317 352/718/317 349/719/317
f 346/717/318 335/720/318 351/721/318 352/718/318
f 353/722/319 356/723/319 355/724/319 354/725/319
f 345/726/320 343/727/320 355/728/320 356/729/320
f 131/286/321 331/730/321 353/731/321 354/732/321
f 343/733/322 131/734/322 354/735/322 355/736/322
f 400/737/323 396/738/323 361/739/323 395/740/323
f 399/741/324 397/742/324 365/605/324 398/743/324
f 363/744/325 366/745/325 450/746/325
f 294/747/326 360/748/326 451/749/326
f 360/750/327 376/751/327 452/752/327
f 366/745/328 379/753/328 453/754/328
f 369/755/329 371/756/329 368/757/329 362/758/329
f 384/759/330 383/760/330 454/761/330
f 370/762/331 380/763/331 383/764/331 384/765/331
f 375/766/332 372/767/332 373/768/332 374/769/332
f 371/770/333 367/771/333 372/772/333 375/773/333
f 283/774/334 368/775/334 374/776/334 373/777/334
f 368/757/335 371/756/335 375/778/335 374/779/335
f 389/780/336 388/781/336 455/782/336
f 364/783/337 367/598/337 382/784/337 381/785/337
f 380/763/338 364/786/338 381/787/338 383/764/338
f 367/788/339 371/756/339 385/789/339 382/790/339
f 371/756/340 370/791/340 384/759/340 385/789/340
f 306/603/341 286/602/341 456/792/341
f 368/793/342 283/794/342 386/795/342 391/796/342
f 283/599/343 321/650/343 387/653/343 386/797/343
f 324/798/344 284/799/344 389/780/344 390/800/344
f 362/801/345 368/793/345 391/796/345 388/802/345
f 284/803/346 362/801/346 388/802/346 389/804/346
f 398/805/347 357/806/347 416/807/347 415/808/347
f 286/809/348 394/810/348 399/811/348 392/812/348
f 394/810/349 359/662/349 397/813/349 399/811/349
f 393/814/350 400/815/350 404/816/350 402/817/350
f 357/818/351 398/743/351 400/737/351 393/819/351
f 398/743/352 365/605/352 396/738/352 400/737/352
f 413/820/353 414/821/353 457/822/353
f 402/823/354 404/824/354 403/825/354 401/826/354
f 400/827/355 395/828/355 403/829/355 404/830/355
f 395/831/356 318/832/356 401/833/356 403/834/356
f 318/685/357 393/835/357 402/836/357 401/837/357
f 407/838/358 406/839/358 405/840/358 408/841/358
f 347/842/359 340/843/359 407/844/359 408/845/359
f 147/341/360 333/846/360 405/847/360 406/848/360
f 340/849/361 147/850/361 406/851/361 407/852/361
f 395/853/362 361/854/362 409/855/362 414/856/362
f 361/854/363 319/857/363 410/858/363 409/855/363
f 318/859/364 395/853/364 414/856/364 413/860/364
f 329/668/365 328/676/365 411/861/365 412/862/365
f 319/863/366 329/864/366 412/865/366 410/866/366
f 417/867/367 418/868/367 415/869/367 416/870/367
f 357/871/368 392/872/368 417/873/368 416/874/368
f 392/875/369 399/876/369 418/877/369 417/878/369
f 399/879/370 398/880/370 415/881/370 418/882/370
f 108/233/371 102/232/371 94/883/371 106/261/371
f 109/204/372 112/212/372 96/201/372
f 93/221/373 112/223/373 94/883/373 102/232/373
f 96/219/374 93/884/374 95/211/374
f 93/884/375 98/209/375 95/211/375
f 116/235/376 106/885/376 111/236/376
f 106/885/377 100/886/377 111/236/377
f 100/886/378 105/887/378 111/236/378
f 105/887/379 114/234/379 111/236/379
f 188/255/380 246/888/380 110/256/380
f 246/888/381 268/532/381 110/256/381
f 268/532/382 234/531/382 110/256/382
f 234/531/383 152/254/383 110/256/383
f 136/269/384 230/511/384 104/270/384
f 230/511/385 185/510/385 104/270/385
f 185/510/386 229/581/386 104/270/386
f 229/581/387 135/268/387 104/270/387
f 132/274/388 162/264/388 419/275/388
f 162/264/389 131/286/389 419/275/389
f 131/286/390 332/714/390 419/275/390
f 332/714/390 121/273/390 419/275/390
f 182/277/391 242/552/391 420/278/391
f 242/552/392 259/565/392 420/278/392
f 259/565/393 241/564/393 420/278/393
f 241/564/394 181/276/394 420/278/394
f 184/889/395 243/890/395 421/891/395
f 243/560/396 263/556/396 421/285/396
f 263/556/397 245/559/397 421/285/397
f 245/559/398 187/283/398 421/285/398
f 162/264/399 165/267/399 422/287/399
f 165/892/400 130/893/400 422/894/400
f 130/296/401 331/730/401 422/287/401
f 331/730/401 131/286/401 422/287/401
f 150/297/402 232/555/402 423/298/402
f 232/555/403 266/553/403 423/298/403
f 266/553/404 242/552/404 423/298/404
f 242/552/405 182/277/405 423/298/405
f 169/271/406 239/895/406 424/331/406
f 239/895/407 255/896/407 424/331/407
f 255/508/408 240/507/408 424/897/408
f 240/507/409 170/898/409 424/897/409
f 163/265/410 235/590/410 425/899/410
f 235/900/411 250/901/411 425/335/411
f 250/901/412 237/902/412 425/335/412
f 237/902/413 166/333/413 425/335/413
f 170/288/414 240/903/414 426/340/414
f 240/903/415 258/516/415 426/340/415
f 258/516/416 231/515/416 426/340/416
f 231/515/417 137/289/417 426/340/417
f 186/332/418 155/346/418 427/342/418
f 155/346/419 125/904/419 427/342/419
f 125/904/420 333/846/420 427/342/420
f 333/846/420 147/341/420 427/342/420
f 183/348/421 186/905/421 428/349/421
f 186/332/422 147/341/422 428/906/422
f 147/412/423 334/411/423 428/349/423
f 334/411/424 148/347/424 428/349/424
f 155/907/425 189/908/425 429/909/425
f 189/388/426 158/387/426 429/352/426
f 158/387/427 336/910/427 429/352/427
f 336/910/428 125/350/428 429/352/428
f 195/365/429 132/274/429 430/366/429
f 132/911/430 121/912/430 430/913/430
f 121/273/431 335/697/431 430/366/431
f 335/697/432 156/364/432 430/366/432
f 339/381/164 200/404/164 431/382/164
f 200/404/433 296/407/433 431/382/433
f 296/407/434 359/914/434 431/382/434
f 359/914/434 394/915/434 431/382/434
f 394/915/435 286/916/435 431/382/435
f 286/916/436 148/380/436 431/382/436
f 199/390/437 202/399/437 432/391/437
f 202/399/438 201/418/438 432/391/438
f 201/418/439 337/426/439 432/391/439
f 337/426/440 198/389/440 432/391/440
f 200/394/441 338/708/441 433/395/441
f 338/708/441 203/400/441 433/395/441
f 203/400/442 202/399/442 433/395/442
f 202/399/443 199/390/443 433/395/443
f 344/397/170 130/917/170 434/398/170
f 130/917/444 279/918/444 434/398/444
f 279/918/445 376/919/445 434/398/445
f 376/919/445 360/920/445 434/398/445
f 360/920/445 294/428/445 434/398/445
f 294/428/446 198/396/446 434/398/446
f 203/400/447 341/702/447 435/401/447
f 341/702/447 158/703/447 435/401/447
f 158/703/448 157/921/448 435/401/448
f 157/921/449 202/399/449 435/401/449
f 202/399/450 157/921/450 436/419/450
f 157/921/451 156/423/451 436/419/451
f 156/423/452 342/422/452 436/419/452
f 342/422/453 201/418/453 436/419/453
f 137/289/454 231/515/454 437/420/454
f 231/515/455 167/514/455 437/420/455
f 167/514/456 230/511/456 437/420/456
f 230/511/457 136/269/457 437/420/457
f 181/276/458 241/564/458 438/533/458
f 241/564/459 260/562/459 438/533/459
f 260/562/460 243/560/460 438/533/460
f 243/890/461 184/889/461 438/922/461
f 187/283/462 245/559/462 439/534/462
f 245/559/463 265/558/463 439/534/463
f 265/558/464 246/888/464 439/534/464
f 246/888/465 188/255/465 439/534/465
f 151/448/466 233/527/466 440/535/466
f 233/527/467 247/526/467 440/535/467
f 247/526/468 232/555/468 440/535/468
f 232/923/469 150/924/469 440/925/469
f 135/268/470 229/581/470 441/536/470
f 229/581/471 256/580/471 441/536/471
f 256/580/472 236/926/472 441/536/472
f 236/926/473 164/281/473 441/536/473
f 166/333/474 237/902/474 442/538/474
f 237/902/475 253/582/475 442/538/475
f 253/582/476 239/583/476 442/538/476
f 239/895/477 169/271/477 442/927/477
f 152/254/478 234/531/478 443/539/478
f 234/531/479 248/530/479 443/539/479
f 248/530/480 233/527/480 443/539/480
f 233/527/481 151/448/481 443/539/481
f 164/281/482 236/926/482 444/540/482
f 236/593/483 249/592/483 444/928/483
f 249/591/484 235/590/484 444/540/484
f 235/590/485 163/265/485 444/540/485
f 294/929/486 363/930/486 445/931/486
f 363/930/486 284/647/486 445/931/486
f 284/647/487 292/646/487 445/931/487
f 292/646/488 295/932/488 445/931/488
f 358/606/489 319/680/489 446/607/489
f 319/680/490 361/739/490 446/607/490
f 361/739/491 396/738/491 446/607/491
f 396/738/491 365/605/491 446/607/491
f 299/597/492 282/661/492 447/613/492
f 282/661/493 283/599/493 447/613/493
f 283/599/494 367/598/494 447/613/494
f 367/598/495 364/783/495 447/613/495
f 364/783/495 377/933/495 447/613/495
f 377/933/495 279/409/495 447/613/495
f 295/934/496 292/681/496 448/935/496
f 292/681/497 319/680/497 448/935/497
f 319/680/498 358/606/498 448/935/498
f 358/606/499 296/936/499 448/935/499
f 296/663/500 358/937/500 449/664/500
f 358/606/501 365/605/501 449/938/501
f 365/939/502 397/813/502 449/664/502
f 397/813/502 359/662/502 449/664/502
f 366/745/503 369/755/503 450/746/503
f 369/755/504 362/758/504 450/746/504
f 362/758/505 284/940/505 450/746/505
f 284/940/506 363/744/506 450/746/506
f 360/941/507 378/942/507 451/943/507
f 378/942/507 366/745/507 451/943/507
f 366/745/508 363/744/508 451/943/508
f 363/744/509 294/944/509 451/943/509
f 376/751/327 279/945/327 452/752/327
f 279/946/510 377/947/510 452/948/510
f 377/947/511 364/949/511 452/948/511
f 364/949/512 380/950/512 452/948/512
f 380/950/512 370/791/512 452/948/512
f 370/791/512 379/753/512 452/948/512
f 379/753/512 366/745/512 452/948/512
f 366/745/513 378/942/513 452/948/513
f 378/942/513 360/941/513 452/948/513
f 379/753/328 370/791/328 453/754/328
f 370/791/514 371/756/514 453/754/514
f 371/756/515 369/755/515 453/754/515
f 369/755/516 366/745/516 453/754/516
f 383/760/517 381/951/517 454/761/517
f 381/951/518 382/790/518 454/761/518
f 382/790/519 385/789/519 454/761/519
f 385/789/520 384/759/520 454/761/520
f 388/952/521 391/953/521 455/954/521
f 391/796/522 386/795/522 455/955/522
f 386/956/523 387/957/523 455/958/523
f 387/959/524 390/960/524 455/961/524
f 390/800/525 389/780/525 455/782/525
f 286/602/526 392/962/526 456/792/526
f 392/962/527 393/835/527 456/792/527
f 393/835/528 318/685/528 456/792/528
f 318/685/529 317/684/529 456/792/529
f 317/684/530 306/603/530 456/792/530
f 414/821/531 409/963/531 457/822/531
f 409/963/532 410/964/532 457/822/532
f 410/964/533 412/965/533 457/822/533
f 412/965/534 411/966/534 457/822/534
f 411/966/535 413/820/535 457/822/535
