# Blender 5.0.0
# www.blender.org
mtllib Laser.mtl
o Circle
v 0.013341 0.000087 -0.055924
v 0.042339 0.000087 -0.048154
v 0.063568 0.000087 -0.026926
v 0.071338 0.000087 0.002073
v 0.063568 0.000087 0.031071
v 0.042339 0.000087 0.052299
v 0.013341 0.000087 0.060069
v -0.015657 0.000087 0.052299
v -0.036885 0.000087 0.031071
v -0.044656 0.000087 0.002073
v -0.036885 0.000087 -0.026926
v -0.015657 0.000087 -0.048154
v 0.013347 -3.638881 -0.060434
v 0.063525 -3.638881 -0.052060
v 0.100258 -3.638881 -0.029181
v 0.113703 -3.638881 0.002071
v 0.100258 -3.638881 0.033324
v 0.063525 -3.638881 0.056203
v 0.013347 -3.638881 0.064577
v -0.036831 -3.638881 0.056203
v -0.073564 -3.638881 0.033324
v -0.087009 -3.638881 0.002071
v -0.073564 -3.638881 -0.029181
v -0.036831 -3.638881 -0.052060
vn -0.0000 -1.0000 -0.0000
vn -0.9432 -0.0103 0.3321
vn 0.9432 -0.0103 0.3321
vn 0.1998 -0.0017 -0.9798
vn -0.9432 -0.0103 -0.3321
vn 0.6056 -0.0055 0.7958
vn -0.1998 -0.0017 0.9798
vn 0.6056 -0.0055 -0.7958
vn -0.6056 -0.0055 -0.7958
vn 0.1998 -0.0017 0.9798
vn -0.6056 -0.0055 0.7958
vn 0.9432 -0.0103 -0.3321
vn -0.1998 -0.0017 -0.9798
vn -0.0000 1.0000 -0.0000
vt 0.000000 0.000000
s 0
usemtl Material.002
f 2/1/1 12/1/1 1/1/1
f 3/1/1 12/1/1 2/1/1
f 11/1/1 12/1/1 4/1/1
f 4/1/1 10/1/1 11/1/1
f 5/1/1 10/1/1 4/1/1
f 5/1/1 9/1/1 10/1/1
f 6/1/1 9/1/1 5/1/1
f 6/1/1 8/1/1 9/1/1
f 7/1/1 8/1/1 6/1/1
f 4/1/1 12/1/1 3/1/1
f 4/1/2 3/1/2 15/1/2 16/1/2
f 11/1/3 10/1/3 22/1/3 23/1/3
f 8/1/4 7/1/4 19/1/4 20/1/4
f 5/1/5 4/1/5 16/1/5 17/1/5
f 12/1/6 11/1/6 23/1/6 24/1/6
f 2/1/7 1/1/7 13/1/7 14/1/7
f 9/1/8 8/1/8 20/1/8 21/1/8
f 6/1/9 5/1/9 17/1/9 18/1/9
f 1/1/10 12/1/10 24/1/10 13/1/10
f 3/1/11 2/1/11 14/1/11 15/1/11
f 10/1/12 9/1/12 21/1/12 22/1/12
f 7/1/13 6/1/13 18/1/13 19/1/13
f 14/1/14 13/1/14 24/1/14 23/1/14 22/1/14 21/1/14 20/1/14 19/1/14 18/1/14 17/1/14 16/1/14 15/1/14
