# Blender 4.5.0
# www.blender.org
mtllib fireBall.mtl
o Cube
v -0.049419 -0.049419 0.049419
v -0.049419 0.049419 0.049419
v -0.049419 -0.049419 -0.049419
v -0.049419 0.049419 -0.049419
v 0.049419 -0.049419 0.049419
v 0.049419 0.049419 0.049419
v 0.049419 -0.049419 -0.049419
v 0.049419 0.049419 -0.049419
v -0.056627 -0.056627 -0.029320
v -0.060248 -0.060248 -0.000000
v -0.056627 -0.056627 0.029320
v -0.056627 -0.029320 0.056627
v -0.060248 -0.000000 0.060248
v -0.056627 0.029320 0.056627
v -0.056627 0.056627 0.029320
v -0.060248 0.060248 0.000000
v -0.056627 0.056627 -0.029320
v -0.056627 0.029320 -0.056627
v -0.060248 -0.000000 -0.060248
v -0.056627 -0.029320 -0.056627
v 0.029320 -0.056627 -0.056627
v 0.000000 -0.060248 -0.060248
v -0.029320 -0.056627 -0.056627
v -0.029320 0.056627 -0.056627
v -0.000000 0.060248 -0.060248
v 0.029320 0.056627 -0.056627
v 0.056627 0.029320 -0.056627
v 0.060248 -0.000000 -0.060248
v 0.056627 -0.029320 -0.056627
v 0.056627 -0.056627 0.029320
v 0.060248 -0.060248 0.000000
v 0.056627 -0.056627 -0.029320
v 0.056627 0.056627 -0.029320
v 0.060248 0.060248 0.000000
v 0.056627 0.056627 0.029320
v 0.056627 0.029320 0.056627
v 0.060248 -0.000000 0.060248
v 0.056627 -0.029320 0.056627
v -0.029320 -0.056627 0.056627
v -0.000000 -0.060248 0.060248
v 0.029320 -0.056627 0.056627
v 0.029320 0.056627 0.056627
v 0.000000 0.060248 0.060248
v -0.029320 0.056627 0.056627
v -0.072052 -0.031248 0.031248
v -0.077274 -0.000000 0.032927
v -0.072052 0.031248 0.031248
v -0.077274 -0.032927 -0.000000
v -0.082975 0.000000 0.000000
v -0.077274 0.032927 0.000000
v -0.072052 -0.031248 -0.031248
v -0.077274 0.000000 -0.032927
v -0.072052 0.031248 -0.031248
v -0.031248 -0.031248 -0.072052
v -0.032927 -0.000000 -0.077274
v -0.031248 0.031248 -0.072052
v 0.000000 -0.032927 -0.077274
v 0.000000 0.000000 -0.082975
v -0.000000 0.032927 -0.077274
v 0.031248 -0.031248 -0.072052
v 0.032927 0.000000 -0.077274
v 0.031248 0.031248 -0.072052
v 0.072052 -0.031248 -0.031248
v 0.077274 -0.000000 -0.032927
v 0.072052 0.031248 -0.031248
v 0.077274 -0.032927 0.000000
v 0.082975 0.000000 0.000000
v 0.077274 0.032927 -0.000000
v 0.072052 -0.031248 0.031248
v 0.077274 0.000000 0.032927
v 0.072052 0.031248 0.031248
v 0.031248 -0.031248 0.072052
v 0.032927 -0.000000 0.077274
v 0.031248 0.031248 0.072052
v -0.000000 -0.032927 0.077274
v -0.000000 0.000000 0.082975
v 0.000000 0.032927 0.077274
v -0.031248 -0.031248 0.072052
v -0.032927 0.000000 0.077274
v -0.031248 0.031248 0.072052
v -0.031248 -0.072052 -0.031248
v -0.000000 -0.077274 -0.032927
v 0.031248 -0.072052 -0.031248
v -0.032927 -0.077274 0.000000
v 0.000000 -0.082975 0.000000
v 0.032927 -0.077274 -0.000000
v -0.031248 -0.072052 0.031248
v 0.000000 -0.077274 0.032927
v 0.031248 -0.072052 0.031248
v 0.031248 0.072052 -0.031248
v 0.000000 0.077274 -0.032927
v -0.031248 0.072052 -0.031248
v 0.032927 0.077274 0.000000
v -0.000000 0.082975 0.000000
v -0.032927 0.077274 -0.000000
v 0.031248 0.072052 0.031248
v -0.000000 0.077274 0.032927
v -0.031248 0.072052 0.031248
vn -0.5774 -0.5774 0.5774
vn -0.5774 0.5774 0.5774
vn -0.5774 -0.5773 -0.5774
vn -0.5774 0.5774 -0.5774
vn 0.5774 -0.5774 0.5774
vn 0.5774 0.5774 0.5774
vn 0.5774 -0.5774 -0.5774
vn 0.5774 0.5774 -0.5774
vn -0.6709 -0.6709 -0.3157
vn -0.7071 -0.7071 -0.0000
vn -0.6709 -0.6709 0.3157
vn -0.6709 -0.3157 0.6709
vn -0.7071 -0.0000 0.7071
vn -0.6709 0.3157 0.6709
vn -0.6709 0.6709 0.3157
vn -0.7071 0.7071 -0.0000
vn -0.6709 0.6709 -0.3157
vn -0.6709 0.3157 -0.6709
vn -0.7071 -0.0000 -0.7071
vn -0.6709 -0.3157 -0.6709
vn 0.3157 -0.6709 -0.6709
vn -0.0000 -0.7071 -0.7071
vn -0.3157 -0.6709 -0.6709
vn -0.3157 0.6709 -0.6709
vn -0.0000 0.7071 -0.7071
vn 0.3157 0.6709 -0.6709
vn 0.6709 0.3157 -0.6709
vn 0.7071 -0.0000 -0.7071
vn 0.6709 -0.3157 -0.6709
vn 0.6709 -0.6709 0.3157
vn 0.7071 -0.7071 -0.0000
vn 0.6709 -0.6709 -0.3157
vn 0.6709 0.6709 -0.3157
vn 0.7071 0.7071 -0.0000
vn 0.6709 0.6709 0.3157
vn 0.6709 0.3157 0.6709
vn 0.7071 -0.0000 0.7071
vn 0.6709 -0.3157 0.6709
vn -0.3157 -0.6709 0.6709
vn -0.0000 -0.7071 0.7071
vn 0.3157 -0.6709 0.6709
vn 0.3157 0.6709 0.6709
vn -0.0000 0.7071 0.7071
vn -0.3157 0.6709 0.6709
vn -0.8797 -0.3362 0.3362
vn -0.9345 -0.0000 0.3560
vn -0.8797 0.3362 0.3362
vn -0.9345 -0.3560 -0.0000
vn -1.0000 -0.0000 -0.0000
vn -0.9345 0.3560 -0.0000
vn -0.8797 -0.3362 -0.3362
vn -0.9345 -0.0000 -0.3560
vn -0.8797 0.3362 -0.3362
vn -0.3362 -0.3362 -0.8797
vn -0.3560 -0.0000 -0.9345
vn -0.3362 0.3362 -0.8797
vn -0.0000 -0.3560 -0.9345
vn -0.0000 -0.0000 -1.0000
vn -0.0000 0.3560 -0.9345
vn 0.3362 -0.3362 -0.8797
vn 0.3560 -0.0000 -0.9345
vn 0.3362 0.3362 -0.8797
vn 0.8797 -0.3362 -0.3362
vn 0.9345 -0.0000 -0.3560
vn 0.8797 0.3362 -0.3362
vn 0.9345 -0.3560 -0.0000
vn 1.0000 -0.0000 -0.0000
vn 0.9345 0.3560 -0.0000
vn 0.8797 -0.3362 0.3362
vn 0.9345 -0.0000 0.3560
vn 0.8797 0.3362 0.3362
vn 0.3362 -0.3362 0.8797
vn 0.3560 -0.0000 0.9345
vn 0.3362 0.3362 0.8797
vn -0.0000 -0.3560 0.9345
vn -0.0000 -0.0000 1.0000
vn -0.0000 0.3560 0.9345
vn -0.3362 -0.3362 0.8797
vn -0.3560 -0.0000 0.9345
vn -0.3362 0.3362 0.8797
vn -0.3362 -0.8797 -0.3362
vn -0.0000 -0.9345 -0.3560
vn 0.3362 -0.8797 -0.3362
vn -0.3560 -0.9345 -0.0000
vn -0.0000 -1.0000 -0.0000
vn 0.3560 -0.9345 -0.0000
vn -0.3362 -0.8797 0.3362
vn -0.0000 -0.9345 0.3560
vn 0.3362 -0.8797 0.3362
vn 0.3362 0.8797 -0.3362
vn -0.0000 0.9345 -0.3560
vn -0.3362 0.8797 -0.3362
vn 0.3560 0.9345 -0.0000
vn -0.0000 1.0000 -0.0000
vn -0.3560 0.9345 -0.0000
vn 0.3362 0.8797 0.3362
vn -0.0000 0.9345 0.3560
vn -0.3362 0.8797 0.3362
vt 0.437500 0.062500
vt 0.500000 0.062500
vt 0.500000 0.125000
vt 0.437500 0.125000
vt 0.562500 0.062500
vt 0.562500 0.125000
vt 0.500000 0.187500
vt 0.437500 0.187500
vt 0.562500 0.187500
vt 0.375000 0.000000
vt 0.437500 0.000000
vt 0.375000 0.062500
vt 0.500000 0.000000
vt 0.562500 0.000000
vt 0.625000 0.000000
vt 0.625000 0.062500
vt 0.625000 0.125000
vt 0.625000 0.187500
vt 0.625000 0.250000
vt 0.562500 0.250000
vt 0.500000 0.250000
vt 0.437500 0.250000
vt 0.375000 0.187500
vt 0.375000 0.250000
vt 0.375000 0.125000
vt 0.437500 0.312500
vt 0.500000 0.312500
vt 0.500000 0.375000
vt 0.437500 0.375000
vt 0.562500 0.312500
vt 0.562500 0.375000
vt 0.500000 0.437500
vt 0.437500 0.437500
vt 0.562500 0.437500
vt 0.375000 0.312500
vt 0.625000 0.312500
vt 0.625000 0.375000
vt 0.625000 0.437500
vt 0.625000 0.500000
vt 0.562500 0.500000
vt 0.500000 0.500000
vt 0.437500 0.500000
vt 0.375000 0.437500
vt 0.375000 0.500000
vt 0.375000 0.375000
vt 0.437500 0.562500
vt 0.500000 0.562500
vt 0.500000 0.625000
vt 0.437500 0.625000
vt 0.562500 0.562500
vt 0.562500 0.625000
vt 0.500000 0.687500
vt 0.437500 0.687500
vt 0.562500 0.687500
vt 0.375000 0.562500
vt 0.625000 0.562500
vt 0.625000 0.625000
vt 0.625000 0.687500
vt 0.625000 0.750000
vt 0.562500 0.750000
vt 0.500000 0.750000
vt 0.437500 0.750000
vt 0.375000 0.687500
vt 0.375000 0.750000
vt 0.375000 0.625000
vt 0.437500 0.812500
vt 0.500000 0.812500
vt 0.500000 0.875000
vt 0.437500 0.875000
vt 0.562500 0.812500
vt 0.562500 0.875000
vt 0.500000 0.937500
vt 0.437500 0.937500
vt 0.562500 0.937500
vt 0.375000 0.812500
vt 0.625000 0.812500
vt 0.625000 0.875000
vt 0.625000 0.937500
vt 0.625000 1.000000
vt 0.562500 1.000000
vt 0.500000 1.000000
vt 0.437500 1.000000
vt 0.375000 0.937500
vt 0.375000 1.000000
vt 0.375000 0.875000
vt 0.187500 0.562500
vt 0.250000 0.562500
vt 0.250000 0.625000
vt 0.187500 0.625000
vt 0.312500 0.562500
vt 0.312500 0.625000
vt 0.250000 0.687500
vt 0.187500 0.687500
vt 0.312500 0.687500
vt 0.125000 0.500000
vt 0.187500 0.500000
vt 0.125000 0.562500
vt 0.250000 0.500000
vt 0.312500 0.500000
vt 0.312500 0.750000
vt 0.250000 0.750000
vt 0.187500 0.750000
vt 0.125000 0.687500
vt 0.125000 0.750000
vt 0.125000 0.625000
vt 0.687500 0.562500
vt 0.750000 0.562500
vt 0.750000 0.625000
vt 0.687500 0.625000
vt 0.812500 0.562500
vt 0.812500 0.625000
vt 0.750000 0.687500
vt 0.687500 0.687500
vt 0.812500 0.687500
vt 0.687500 0.500000
vt 0.750000 0.500000
vt 0.812500 0.500000
vt 0.875000 0.500000
vt 0.875000 0.562500
vt 0.875000 0.625000
vt 0.875000 0.687500
vt 0.875000 0.750000
vt 0.812500 0.750000
vt 0.750000 0.750000
vt 0.687500 0.750000
s 1
usemtl Material.001
f 45/1/45 46/2/46 49/3/49 48/4/48
f 46/2/46 47/5/47 50/6/50 49/3/49
f 48/4/48 49/3/49 52/7/52 51/8/51
f 49/3/49 50/6/50 53/9/53 52/7/52
f 1/10/1 12/11/12 45/1/45 11/12/11
f 12/11/12 13/13/13 46/2/46 45/1/45
f 13/13/13 14/14/14 47/5/47 46/2/46
f 14/14/14 2/15/2 15/16/15 47/5/47
f 47/5/47 15/16/15 16/17/16 50/6/50
f 50/6/50 16/17/16 17/18/17 53/9/53
f 53/9/53 17/18/17 4/19/4 18/20/18
f 52/7/52 53/9/53 18/20/18 19/21/19
f 51/8/51 52/7/52 19/21/19 20/22/20
f 9/23/9 51/8/51 20/22/20 3/24/3
f 10/25/10 48/4/48 51/8/51 9/23/9
f 11/12/11 45/1/45 48/4/48 10/25/10
f 54/26/54 55/27/55 58/28/58 57/29/57
f 55/27/55 56/30/56 59/31/59 58/28/58
f 57/29/57 58/28/58 61/32/61 60/33/60
f 58/28/58 59/31/59 62/34/62 61/32/61
f 3/24/3 20/22/20 54/26/54 23/35/23
f 20/22/20 19/21/19 55/27/55 54/26/54
f 19/21/19 18/20/18 56/30/56 55/27/55
f 18/20/18 4/19/4 24/36/24 56/30/56
f 56/30/56 24/36/24 25/37/25 59/31/59
f 59/31/59 25/37/25 26/38/26 62/34/62
f 62/34/62 26/38/26 8/39/8 27/40/27
f 61/32/61 62/34/62 27/40/27 28/41/28
f 60/33/60 61/32/61 28/41/28 29/42/29
f 21/43/21 60/33/60 29/42/29 7/44/7
f 22/45/22 57/29/57 60/33/60 21/43/21
f 23/35/23 54/26/54 57/29/57 22/45/22
f 63/46/63 64/47/64 67/48/67 66/49/66
f 64/47/64 65/50/65 68/51/68 67/48/67
f 66/49/66 67/48/67 70/52/70 69/53/69
f 67/48/67 68/51/68 71/54/71 70/52/70
f 7/44/7 29/42/29 63/46/63 32/55/32
f 29/42/29 28/41/28 64/47/64 63/46/63
f 28/41/28 27/40/27 65/50/65 64/47/64
f 27/40/27 8/39/8 33/56/33 65/50/65
f 65/50/65 33/56/33 34/57/34 68/51/68
f 68/51/68 34/57/34 35/58/35 71/54/71
f 71/54/71 35/58/35 6/59/6 36/60/36
f 70/52/70 71/54/71 36/60/36 37/61/37
f 69/53/69 70/52/70 37/61/37 38/62/38
f 30/63/30 69/53/69 38/62/38 5/64/5
f 31/65/31 66/49/66 69/53/69 30/63/30
f 32/55/32 63/46/63 66/49/66 31/65/31
f 72/66/72 73/67/73 76/68/76 75/69/75
f 73/67/73 74/70/74 77/71/77 76/68/76
f 75/69/75 76/68/76 79/72/79 78/73/78
f 76/68/76 77/71/77 80/74/80 79/72/79
f 5/64/5 38/62/38 72/66/72 41/75/41
f 38/62/38 37/61/37 73/67/73 72/66/72
f 37/61/37 36/60/36 74/70/74 73/67/73
f 36/60/36 6/59/6 42/76/42 74/70/74
f 74/70/74 42/76/42 43/77/43 77/71/77
f 77/71/77 43/77/43 44/78/44 80/74/80
f 80/74/80 44/78/44 2/79/2 14/80/14
f 79/72/79 80/74/80 14/80/14 13/81/13
f 78/73/78 79/72/79 13/81/13 12/82/12
f 39/83/39 78/73/78 12/82/12 1/84/1
f 40/85/40 75/69/75 78/73/78 39/83/39
f 41/75/41 72/66/72 75/69/75 40/85/40
f 81/86/81 82/87/82 85/88/85 84/89/84
f 82/87/82 83/90/83 86/91/86 85/88/85
f 84/89/84 85/88/85 88/92/88 87/93/87
f 85/88/85 86/91/86 89/94/89 88/92/88
f 3/95/3 23/96/23 81/86/81 9/97/9
f 23/96/23 22/98/22 82/87/82 81/86/81
f 22/98/22 21/99/21 83/90/83 82/87/82
f 21/99/21 7/44/7 32/55/32 83/90/83
f 83/90/83 32/55/32 31/65/31 86/91/86
f 86/91/86 31/65/31 30/63/30 89/94/89
f 89/94/89 30/63/30 5/64/5 41/100/41
f 88/92/88 89/94/89 41/100/41 40/101/40
f 87/93/87 88/92/88 40/101/40 39/102/39
f 11/103/11 87/93/87 39/102/39 1/104/1
f 10/105/10 84/89/84 87/93/87 11/103/11
f 9/97/9 81/86/81 84/89/84 10/105/10
f 90/106/90 91/107/91 94/108/94 93/109/93
f 91/107/91 92/110/92 95/111/95 94/108/94
f 93/109/93 94/108/94 97/112/97 96/113/96
f 94/108/94 95/111/95 98/114/98 97/112/97
f 8/39/8 26/115/26 90/106/90 33/56/33
f 26/115/26 25/116/25 91/107/91 90/106/90
f 25/116/25 24/117/24 92/110/92 91/107/91
f 24/117/24 4/118/4 17/119/17 92/110/92
f 92/110/92 17/119/17 16/120/16 95/111/95
f 95/111/95 16/120/16 15/121/15 98/114/98
f 98/114/98 15/121/15 2/122/2 44/123/44
f 97/112/97 98/114/98 44/123/44 43/124/43
f 96/113/96 97/112/97 43/124/43 42/125/42
f 35/58/35 96/113/96 42/125/42 6/59/6
f 34/57/34 93/109/93 96/113/96 35/58/35
f 33/56/33 90/106/90 93/109/93 34/57/34
