# Blender 5.0.0
# www.blender.org
mtllib musket.mtl
o mousket
v 0.003045 0.160953 -0.060686
v 0.005429 0.160058 -0.058342
v 0.006301 0.159385 -0.055062
v 0.005429 0.159114 -0.051724
v 0.003045 0.159317 -0.049223
v -0.000210 0.159941 -0.048230
v -0.003466 0.160818 -0.049009
v -0.005849 0.161713 -0.051353
v -0.006721 0.162386 -0.054633
v -0.005849 0.162658 -0.057971
v -0.003466 0.162454 -0.060472
v -0.000210 0.161830 -0.061466
v -0.001176 0.147196 -0.059297
v 0.001410 0.146978 -0.057008
v 0.002653 0.147543 -0.053828
v 0.002220 0.148739 -0.050610
v 0.000228 0.150245 -0.048215
v -0.002791 0.151658 -0.047285
v -0.006028 0.152599 -0.048070
v -0.008614 0.152816 -0.050359
v -0.009857 0.152251 -0.053539
v -0.009425 0.151056 -0.056757
v -0.007432 0.149550 -0.059152
v -0.004413 0.148137 -0.060081
v -0.006409 0.135216 -0.052502
v -0.003640 0.135434 -0.050439
v -0.002072 0.136771 -0.047659
v -0.002125 0.138869 -0.044907
v -0.003786 0.141165 -0.042921
v -0.006609 0.143045 -0.042233
v -0.009837 0.144004 -0.043027
v -0.012607 0.143786 -0.045091
v -0.014175 0.142449 -0.047871
v -0.014121 0.140352 -0.050623
v -0.012460 0.138055 -0.052609
v -0.009638 0.136176 -0.053297
v -0.012015 0.124694 -0.042368
v -0.009131 0.125134 -0.040507
v -0.007373 0.126840 -0.038063
v -0.007211 0.129355 -0.035691
v -0.008690 0.132005 -0.034027
v -0.011412 0.134079 -0.033517
v -0.014648 0.135023 -0.034297
v -0.017532 0.134583 -0.036158
v -0.019291 0.132877 -0.038602
v -0.019452 0.130362 -0.040974
v -0.017974 0.127713 -0.042638
v -0.015252 0.125638 -0.043148
v -0.017646 0.115001 -0.030289
v -0.014695 0.115559 -0.028570
v -0.012840 0.117435 -0.026330
v -0.012578 0.120126 -0.024170
v -0.013980 0.122911 -0.022668
v -0.016670 0.125043 -0.022227
v -0.019926 0.125952 -0.022965
v -0.022877 0.125394 -0.024684
v -0.024732 0.123518 -0.026924
v -0.024993 0.120827 -0.029084
v -0.023591 0.118042 -0.030586
v -0.020902 0.115910 -0.031026
v -0.022937 0.105762 -0.017470
v -0.019946 0.106391 -0.015846
v -0.018054 0.108335 -0.013697
v -0.017766 0.111072 -0.011600
v -0.019161 0.113870 -0.010116
v -0.021864 0.115979 -0.009643
v -0.025151 0.116833 -0.010308
v -0.028141 0.116204 -0.011932
v -0.030033 0.114261 -0.014080
v -0.030321 0.111523 -0.016177
v -0.028926 0.108725 -0.017661
v -0.026223 0.106617 -0.018134
v -0.027478 0.096782 -0.005152
v -0.024466 0.097456 -0.003588
v -0.022578 0.099389 -0.001426
v -0.022321 0.102064 0.000754
v -0.023764 0.104764 0.002369
v -0.026519 0.106765 0.002984
v -0.029849 0.107531 0.002436
v -0.032861 0.106858 0.000872
v -0.034748 0.104924 -0.001290
v -0.035005 0.102249 -0.003470
v -0.033563 0.099549 -0.005084
v -0.030808 0.097548 -0.005700
v -0.030835 0.088019 0.005352
v -0.027814 0.088718 0.006888
v -0.025969 0.090533 0.009184
v -0.025794 0.092980 0.011626
v -0.027337 0.095401 0.013558
v -0.030183 0.097149 0.014462
v -0.033570 0.097755 0.014098
v -0.036591 0.097056 0.012561
v -0.038437 0.095241 0.010265
v -0.038611 0.092795 0.007824
v -0.037069 0.090373 0.005892
v -0.034223 0.088625 0.004987
v -0.032621 0.079717 0.012721
v -0.029602 0.080408 0.014264
v -0.027820 0.081881 0.016839
v -0.027753 0.083739 0.019757
v -0.029419 0.085487 0.022236
v -0.032372 0.086654 0.023612
v -0.035820 0.086929 0.023516
v -0.038840 0.086238 0.021974
v -0.040622 0.084766 0.019398
v -0.040689 0.082907 0.016480
v -0.039022 0.081160 0.014001
v -0.036070 0.079992 0.012625
v -0.032714 0.072307 0.016159
v -0.029694 0.072928 0.017729
v -0.027901 0.073649 0.020600
v -0.027815 0.074275 0.024002
v -0.029461 0.074640 0.027024
v -0.032397 0.074646 0.028857
v -0.035835 0.074290 0.029008
v -0.038856 0.073669 0.027438
v -0.040649 0.072949 0.024568
v -0.040734 0.072322 0.021165
v -0.039089 0.071958 0.018143
v -0.036153 0.071952 0.016311
v -0.031058 0.064896 0.015643
v -0.028012 0.065395 0.017206
v -0.026013 0.065158 0.020021
v -0.025598 0.064249 0.023334
v -0.026878 0.062910 0.026257
v -0.029510 0.061502 0.028007
v -0.032789 0.060400 0.028115
v -0.035836 0.059901 0.026553
v -0.037834 0.060138 0.023738
v -0.038249 0.061048 0.020425
v -0.036969 0.062386 0.017501
v -0.034337 0.063795 0.015751
v -0.026756 0.055567 0.009699
v -0.023668 0.055969 0.011207
v -0.021399 0.055094 0.013670
v -0.020557 0.053178 0.016425
v -0.021368 0.050733 0.018736
v -0.023615 0.048415 0.019983
v -0.026694 0.046844 0.019831
v -0.029782 0.046442 0.018322
v -0.032051 0.047317 0.015860
v -0.032893 0.049233 0.013104
v -0.032082 0.051678 0.010794
v -0.029836 0.053997 0.009547
v -0.018901 0.044131 -0.003985
v -0.015778 0.044481 -0.002534
v -0.013315 0.043310 -0.000404
v -0.012171 0.040932 0.001834
v -0.012652 0.037983 0.003580
v -0.014630 0.035255 0.004368
v -0.017574 0.033478 0.003985
v -0.020696 0.033128 0.002534
v -0.023160 0.034299 0.000404
v -0.024304 0.036678 -0.001834
v -0.023823 0.039626 -0.003580
v -0.021845 0.042354 -0.004368
v -0.020364 -0.036500 -0.629424
v -0.020364 0.005232 -0.629424
v 0.021367 -0.036500 -0.629424
v 0.021367 0.005232 -0.629424
v -0.027319 -0.043455 -0.563398
v -0.027319 0.012187 -0.563398
v 0.028323 -0.043455 -0.563398
v 0.028323 0.012187 -0.563398
v -0.027319 -0.042113 -0.052150
v -0.027319 0.024085 -0.026655
v 0.028323 0.024085 -0.026655
v 0.028323 -0.042113 -0.052150
v -0.027319 -0.043455 -0.462792
v -0.027319 -0.043455 -0.358757
v -0.027319 -0.043455 -0.254722
v -0.027319 -0.043455 -0.150687
v -0.027319 0.012187 -0.150687
v -0.027319 0.012187 -0.254722
v -0.027319 0.012187 -0.358757
v -0.027319 0.012187 -0.462792
v 0.028323 -0.043455 -0.462792
v 0.028323 -0.043455 -0.358757
v 0.028323 -0.043455 -0.254722
v 0.028323 -0.043455 -0.150687
v 0.028323 0.012187 -0.150687
v 0.028323 0.012187 -0.254722
v 0.028323 0.012187 -0.358757
v 0.028323 0.012187 -0.462792
v -0.027319 -0.050709 0.028636
v -0.027319 0.016033 0.053334
v 0.028323 0.016033 0.053334
v 0.028323 -0.050709 0.028636
v -0.027319 -0.104848 0.128671
v -0.027319 -0.051896 0.134465
v 0.028323 -0.051896 0.134465
v 0.028323 -0.104848 0.128671
v -0.020364 -0.110541 0.228149
v -0.020364 -0.068814 0.227491
v 0.021367 -0.068814 0.227491
v 0.021367 -0.110541 0.228149
v 0.021367 0.064444 -0.019989
v -0.020364 0.064444 -0.019989
v -0.024936 -0.015634 -0.633996
v 0.000502 -0.041072 -0.633996
v 0.000502 0.009804 -0.633996
v 0.025940 -0.015634 -0.633996
v -0.026128 -0.042263 -0.605489
v -0.037752 -0.015634 -0.563398
v -0.026128 0.010996 -0.605489
v 0.027131 -0.042263 -0.605489
v 0.027131 0.010996 -0.605489
v 0.038756 -0.015634 -0.563398
v 0.000502 -0.053888 -0.563398
v 0.000502 0.022620 -0.563398
v -0.038042 -0.014269 -0.047239
v 0.039045 -0.014269 -0.047239
v 0.000502 -0.052043 -0.053374
v 0.000502 0.025594 -0.041653
v -0.027319 -0.043287 -0.099357
v -0.027319 0.012187 -0.514380
v 0.028323 -0.043287 -0.099357
v 0.028323 0.012187 -0.514380
v -0.027319 -0.043455 -0.514380
v -0.027319 -0.043455 -0.410774
v -0.027319 -0.043455 -0.306739
v -0.027319 -0.043455 -0.202704
v -0.027319 0.013179 -0.097050
v -0.027319 0.012187 -0.202704
v -0.027319 0.012187 -0.306739
v -0.027319 0.012187 -0.410774
v 0.028323 -0.043455 -0.514380
v 0.028323 -0.043455 -0.410774
v 0.028323 -0.043455 -0.306739
v 0.028323 -0.043455 -0.202704
v 0.028323 0.013179 -0.097050
v 0.028323 0.012187 -0.202704
v 0.028323 0.012187 -0.306739
v 0.028323 0.012187 -0.410774
v 0.038756 -0.015634 -0.462792
v 0.038756 -0.015634 -0.358757
v 0.038756 -0.015634 -0.254722
v 0.038756 -0.015634 -0.150687
v 0.000502 0.022620 -0.462792
v 0.000502 0.022620 -0.358757
v 0.000502 0.022620 -0.254722
v 0.000502 0.022620 -0.150687
v 0.000502 -0.053888 -0.462792
v 0.000502 -0.053888 -0.358757
v 0.000502 -0.053888 -0.254722
v 0.000502 -0.053888 -0.150687
v -0.037752 -0.015634 -0.462792
v -0.037752 -0.015634 -0.358757
v -0.037752 -0.015634 -0.254722
v -0.037752 -0.015634 -0.150687
v -0.038042 -0.026217 0.041679
v 0.039045 -0.026217 0.041679
v 0.000502 -0.059129 0.023770
v 0.000502 0.014523 0.068332
v 0.038756 0.020059 0.013340
v 0.028323 -0.041175 -0.011286
v -0.027319 -0.041175 -0.011286
v -0.037752 0.020059 0.013340
v -0.037752 -0.078372 0.131568
v 0.038756 -0.078372 0.131568
v 0.000502 -0.114777 0.127584
v 0.000502 -0.041967 0.135551
v 0.028323 -0.077416 0.074147
v -0.027319 -0.077416 0.074147
v -0.027319 -0.027523 0.092687
v 0.028323 -0.027523 0.092687
v -0.024936 -0.089554 0.235662
v 0.025940 -0.089554 0.235662
v 0.000502 -0.114989 0.236063
v 0.000502 -0.064119 0.235261
v -0.026128 -0.115147 0.188895
v -0.026128 -0.062230 0.188889
v 0.027131 -0.062230 0.188889
v 0.027131 -0.115147 0.188895
v 0.000502 0.070156 -0.024279
v 0.027131 0.053623 -0.029772
v -0.026128 0.053623 -0.029772
v 0.027131 0.049723 0.008973
v -0.026128 0.049723 0.008973
v -0.036142 -0.015634 -0.605940
v 0.000502 -0.015634 -0.643592
v 0.037146 -0.015634 -0.605940
v -0.037752 -0.015355 -0.098562
v 0.000502 -0.052278 -0.605940
v 0.000502 0.021010 -0.605940
v 0.039915 -0.015493 -0.001130
v 0.038756 -0.015355 -0.098562
v 0.038756 -0.015634 -0.514380
v 0.038756 -0.015634 -0.410774
v 0.038756 -0.015634 -0.306739
v 0.038756 -0.015634 -0.202704
v 0.000502 0.022620 -0.514380
v 0.000502 0.022620 -0.410774
v 0.000502 0.022620 -0.306739
v 0.000502 0.022620 -0.202704
v 0.000502 -0.053888 -0.514380
v 0.000502 -0.053888 -0.410774
v 0.000502 -0.053888 -0.306739
v 0.000502 -0.053888 -0.202704
v -0.037752 -0.015634 -0.514380
v -0.037752 -0.015634 -0.410774
v -0.037752 -0.015634 -0.306739
v -0.037752 -0.015634 -0.202704
v 0.000502 -0.053657 -0.099510
v 0.000502 -0.086402 0.070712
v 0.000502 -0.050161 -0.014800
v -0.038911 -0.015493 -0.001130
v -0.036142 -0.088676 0.189666
v -0.037752 -0.053007 0.083298
v 0.000502 -0.018896 0.096906
v 0.038756 -0.053007 0.083298
v 0.000502 -0.089294 0.252120
v 0.000502 -0.052268 0.189661
v 0.037146 -0.088676 0.189666
v 0.000502 -0.125085 0.189670
v 0.000502 0.023116 -0.097836
v 0.000502 0.058006 -0.040572
v 0.000502 0.052470 0.014420
v 0.037113 0.044224 -0.004806
v -0.036110 0.044224 -0.004806
v 0.000502 0.049253 -0.617357
v 0.000502 0.049253 0.009098
v 0.010816 0.045902 -0.617357
v 0.010816 0.045902 0.009098
v 0.017191 0.037128 -0.617357
v 0.017191 0.037128 0.009098
v 0.017191 0.026282 -0.617357
v 0.017191 0.026282 0.009098
v 0.010816 0.017508 -0.617357
v 0.010816 0.017508 0.009098
v 0.000502 0.014157 -0.617357
v 0.000502 0.014157 0.009098
v -0.009813 0.017508 -0.617357
v -0.009813 0.017508 0.009098
v -0.016187 0.026282 -0.617357
v -0.016187 0.026282 0.009098
v -0.016187 0.037128 -0.617357
v -0.016187 0.037128 0.009098
v -0.009813 0.045902 -0.617357
v -0.009813 0.045902 0.009098
v 0.000502 0.039461 -0.633766
v 0.005061 0.037980 -0.633766
v 0.007878 0.034102 -0.633766
v 0.007878 0.029308 -0.633766
v 0.005061 0.025430 -0.633766
v 0.000502 0.023949 -0.633766
v -0.004057 0.025430 -0.633766
v -0.006875 0.029308 -0.633766
v -0.006875 0.034102 -0.633766
v -0.004057 0.037980 -0.633766
v -0.000210 0.160886 -0.054848
v -0.014411 0.036550 -0.640857
v -0.008714 0.044390 -0.640857
v 0.000502 0.016026 -0.640857
v -0.008714 0.019020 -0.640857
v -0.014411 0.026859 -0.640857
v 0.009718 0.019020 -0.640857
v 0.015413 0.026859 -0.640857
v 0.000502 0.047384 -0.640857
v 0.009718 0.044390 -0.640857
v 0.015413 0.036551 -0.640857
v -0.021261 0.038777 -0.644916
v -0.012948 0.050218 -0.644916
v 0.000502 0.008823 -0.644916
v -0.012948 0.013192 -0.644916
v -0.021261 0.024633 -0.644916
v 0.013952 0.013192 -0.644916
v 0.022263 0.024633 -0.644916
v 0.000502 0.054587 -0.644916
v 0.013952 0.050218 -0.644916
v 0.022263 0.038777 -0.644916
v 0.000502 0.031705 0.009098
v 0.000501 0.031705 -0.640857
vn 0.5253 0.5515 -0.6480
vn 0.3585 -0.3984 -0.8442
vn -0.1113 -0.2623 -0.9586
vn 0.1363 0.6583 -0.7403
vn 0.8084 0.4650 -0.3611
vn 0.7386 -0.4344 -0.5156
vn 0.9038 0.4267 0.0322
vn 0.9320 -0.3588 -0.0515
vn 0.7930 0.4485 0.4123
vn 0.8825 -0.1859 0.4321
vn 0.5235 0.5201 0.6749
vn 0.5924 0.0437 0.8045
vn 0.1781 0.6164 0.7671
vn 0.1329 0.2660 0.9548
vn -0.1636 0.7113 0.6836
vn -0.3672 0.4122 0.8338
vn -0.4327 0.7854 0.4426
vn -0.7616 0.4387 0.4769
vn -0.5612 0.8231 0.0867
vn -0.9389 0.3441 -0.0091
vn -0.4974 0.8132 -0.3021
vn -0.8589 0.1613 -0.4862
vn -0.2421 0.7540 -0.6106
vn -0.5545 -0.0593 -0.8301
vn 0.2530 -0.6540 -0.7130
vn -0.2205 -0.5134 -0.8293
vn 0.6623 -0.6261 -0.4116
vn 0.9011 -0.4337 -0.0002
vn 0.9018 -0.1224 0.4144
vn 0.6578 0.2265 0.7184
vn 0.2319 0.5154 0.8250
vn -0.2588 0.6613 0.7041
vn -0.6777 0.6236 0.3895
vn -0.9089 0.4159 -0.0308
vn -0.8921 0.0991 -0.4409
vn -0.6385 -0.2398 -0.7313
vn 0.1940 -0.7715 -0.6060
vn -0.2852 -0.6314 -0.7211
vn 0.6230 -0.7087 -0.3309
vn 0.8885 -0.4576 0.0329
vn 0.9174 -0.0823 0.3895
vn 0.6983 0.3174 0.6416
vn 0.2888 0.6316 0.7195
vn -0.1995 0.7736 0.6015
vn -0.6330 0.7048 0.3202
vn -0.8940 0.4456 -0.0472
vn -0.9136 0.0682 -0.4008
vn -0.6900 -0.3252 -0.6466
vn 0.1679 -0.8188 -0.5490
vn -0.3170 -0.6827 -0.6584
vn 0.6089 -0.7370 -0.2933
vn 0.8880 -0.4581 0.0414
vn 0.9291 -0.0553 0.3656
vn 0.7198 0.3632 0.5916
vn 0.3160 0.6837 0.6578
vn -0.1730 0.8194 0.5465
vn -0.6148 0.7342 0.2881
vn -0.8908 0.4519 -0.0473
vn -0.9279 0.0495 -0.3695
vn -0.7176 -0.3654 -0.5928
vn 0.1630 -0.8280 -0.5366
vn -0.3285 -0.6990 -0.6352
vn 0.6114 -0.7348 -0.2937
vn 0.8957 -0.4437 0.0283
vn 0.9388 -0.0330 0.3428
vn 0.7290 0.3865 0.5650
vn 0.3235 0.7015 0.6350
vn -0.1681 0.8281 0.5348
vn -0.6142 0.7332 0.2919
vn -0.8961 0.4429 -0.0288
vn -0.9391 0.0345 -0.3418
vn -0.7316 -0.3833 -0.5638
vn 0.1744 -0.8044 -0.5679
vn -0.3257 -0.6874 -0.6492
vn 0.6278 -0.7036 -0.3329
vn 0.9112 -0.4120 -0.0077
vn 0.9476 -0.0092 0.3194
vn 0.7285 0.3948 0.5598
vn 0.3153 0.6916 0.6499
vn -0.1804 0.8036 0.5671
vn -0.6277 0.7030 0.3344
vn -0.9091 0.4164 0.0129
vn -0.9497 0.0186 -0.3125
vn -0.7370 -0.3855 -0.5552
vn 0.2004 -0.7305 -0.6528
vn -0.3112 -0.6355 -0.7066
vn 0.6577 -0.6249 -0.4206
vn 0.9347 -0.3476 -0.0735
vn 0.9557 0.0233 0.2933
vn 0.7182 0.3846 0.5798
vn 0.2914 0.6402 0.7108
vn -0.2092 0.7262 0.6548
vn -0.6543 0.6233 0.4283
vn -0.9296 0.3577 0.0892
vn -0.9614 -0.0041 -0.2751
vn -0.7366 -0.3680 -0.5674
vn 0.2328 -0.5485 -0.8031
vn -0.2938 -0.4991 -0.8153
vn 0.6952 -0.4417 -0.5672
vn 0.9622 -0.2098 -0.1736
vn 0.9607 0.0761 0.2670
vn 0.6991 0.3338 0.6323
vn 0.2575 0.4983 0.8279
vn -0.2459 0.5333 0.8094
vn -0.6854 0.4334 0.5852
vn -0.9519 0.2228 0.2105
vn -0.9737 -0.0486 -0.2226
vn -0.7359 -0.3132 -0.6003
vn 0.2233 -0.1557 -0.9622
vn -0.3134 -0.2062 -0.9269
vn 0.6984 -0.0568 -0.7134
vn 0.9637 0.0582 -0.2604
vn 0.9549 0.1522 0.2548
vn 0.6934 0.2013 0.6919
vn 0.2578 0.1973 0.9458
vn -0.2398 0.1437 0.9601
vn -0.6766 0.0545 0.7343
vn -0.9450 -0.0486 0.3236
vn -0.9749 -0.1404 -0.1727
vn -0.7497 -0.1985 -0.6313
vn 0.1196 0.3404 -0.9327
vn -0.3878 0.1633 -0.9071
vn 0.5952 0.4171 -0.6868
vn 0.8951 0.3717 -0.2461
vn 0.9401 0.2258 0.2554
vn 0.7328 0.0255 0.6800
vn 0.3393 -0.1773 0.9238
vn -0.1367 -0.3338 0.9327
vn -0.5776 -0.4064 0.7080
vn -0.8746 -0.3773 0.3044
vn -0.9509 -0.2513 -0.1808
vn -0.7778 -0.0552 -0.6260
vn -0.0099 0.6555 -0.7551
vn -0.4776 0.4116 -0.7762
vn 0.4612 0.7157 -0.5244
vn 0.8037 0.5760 -0.1490
vn 0.9224 0.2799 0.2663
vn 0.7900 -0.0866 0.6070
vn 0.4510 -0.4248 0.7849
vn -0.0010 -0.6507 0.7594
vn -0.4516 -0.7103 0.5400
vn -0.7883 -0.5881 0.1808
vn -0.9225 -0.3104 -0.2292
vn -0.8115 0.0554 -0.5817
vn -0.0640 0.7472 -0.6615
vn -0.5154 0.4880 -0.7044
vn 0.4045 0.8024 -0.4387
vn 0.7636 0.6385 -0.0960
vn 0.9138 0.3001 0.2735
vn 0.8149 -0.1174 0.5676
vn 0.5000 -0.4987 0.7080
vn 0.0583 -0.7464 0.6630
vn -0.3969 -0.8015 0.4473
vn -0.7521 -0.6491 0.1140
vn -0.9121 -0.3225 -0.2532
vn -0.8267 0.0950 -0.5545
vn -0.9355 -0.3516 -0.0359
vn -0.9355 0.3516 -0.0359
vn -0.8935 0.3089 -0.3259
vn -0.3055 0.3057 -0.9018
vn -0.3068 0.3062 -0.9012
vn -0.8935 -0.3089 -0.3259
vn -0.3068 -0.3062 -0.9012
vn -0.3067 -0.3045 -0.9018
vn -0.3061 -0.3061 -0.9015
vn -0.3062 -0.3068 -0.9012
vn -0.3062 0.3068 -0.9012
vn -0.3061 0.3061 -0.9015
vn 0.3061 0.3061 -0.9015
vn 0.3062 0.3068 -0.9012
vn 0.3061 0.3051 -0.9018
vn 0.3068 0.3062 -0.9012
vn 0.3062 -0.3068 -0.9012
vn 0.3061 -0.3061 -0.9015
vn 0.3068 -0.3061 -0.9012
vn 0.3072 -0.3041 -0.9018
vn 0.8935 -0.3089 -0.3259
vn 0.8935 0.3089 -0.3259
vn 0.9355 0.3516 -0.0359
vn 0.9355 -0.3516 -0.0359
vn -0.9370 0.3492 -0.0021
vn -0.9377 0.3473 -0.0042
vn -0.9364 -0.3508 0.0008
vn -0.9357 -0.3528 0.0034
vn -0.9357 -0.3529 0.0035
vn -0.9348 -0.3551 0.0054
vn -0.9497 0.3113 -0.0329
vn -0.3089 -0.8935 -0.3259
vn 0.3089 -0.8935 -0.3259
vn 0.3516 -0.9355 -0.0359
vn -0.3516 -0.9355 -0.0359
vn 0.3089 0.8935 -0.3259
vn -0.3089 0.8935 -0.3259
vn -0.3516 0.9355 -0.0359
vn 0.3516 0.9355 -0.0359
vn 0.9240 -0.3822 -0.0105
vn 0.9709 0.2104 -0.1146
vn 0.9834 0.0992 0.1519
vn 0.9241 -0.3732 -0.0817
vn 0.9364 -0.3508 0.0008
vn 0.9357 -0.3529 0.0035
vn 0.9357 -0.3528 0.0034
vn 0.9370 0.3492 -0.0021
vn 0.9377 0.3473 -0.0042
vn 0.9498 0.3113 -0.0329
vn 0.9348 -0.3551 0.0054
vn 0.9363 -0.3511 -0.0000
vn 0.9363 0.3511 -0.0000
vn 0.3511 0.9363 -0.0000
vn -0.3511 0.9363 -0.0000
vn -0.3511 -0.9363 -0.0000
vn 0.3511 -0.9363 -0.0000
vn 0.3507 -0.9365 0.0018
vn -0.3507 -0.9365 0.0018
vn -0.9363 0.3511 -0.0000
vn -0.9363 -0.3511 -0.0000
vn -0.3420 -0.9393 0.0281
vn -0.3502 -0.9367 0.0036
vn 0.3502 -0.9367 0.0036
vn 0.3420 -0.9393 0.0281
vn -0.3264 -0.8163 -0.4766
vn 0.3264 -0.8163 -0.4766
vn 0.3222 -0.8464 -0.4240
vn -0.3222 -0.8464 -0.4240
vn -0.3191 -0.9471 0.0336
vn 0.3191 -0.9471 0.0336
vn 0.3211 -0.9218 -0.2173
vn -0.3211 -0.9218 -0.2173
vn -0.9709 0.2104 -0.1146
vn -0.9240 -0.3823 -0.0105
vn -0.9241 -0.3732 -0.0817
vn -0.9834 0.0992 0.1519
vn 0.8658 0.3861 0.3181
vn -0.9303 0.3559 0.0884
vn -0.9330 -0.3575 -0.0402
vn -0.9266 -0.3194 0.1984
vn -0.9212 0.3252 0.2135
vn -0.9505 0.2329 0.2058
vn -0.9295 -0.3156 -0.1907
vn -0.9249 -0.3382 -0.1737
vn -0.9266 0.3291 0.1818
vn 0.3249 0.6258 0.7091
vn -0.3249 0.6258 0.7091
vn -0.3182 0.8165 0.4817
vn 0.3182 0.8165 0.4817
vn 0.9295 -0.3156 -0.1907
vn 0.9505 0.2329 0.2058
vn 0.9266 0.3291 0.1818
vn 0.9249 -0.3382 -0.1737
vn 0.4495 -0.4373 0.7789
vn 0.4495 0.4616 0.7647
vn -0.4495 0.4616 0.7647
vn -0.4495 -0.4373 0.7789
vn 0.3430 0.9221 0.1791
vn -0.3430 0.9221 0.1791
vn -0.3239 0.9193 0.2234
vn 0.3239 0.9193 0.2234
vn 0.9330 -0.3576 -0.0402
vn 0.9303 0.3559 0.0884
vn 0.9212 0.3253 0.2135
vn 0.9266 -0.3195 0.1984
vn -0.3395 -0.9281 -0.1531
vn 0.3395 -0.9281 -0.1531
vn 0.3153 -0.9315 0.1811
vn -0.3153 -0.9315 0.1811
vn 0.2282 0.9682 -0.1024
vn 0.3439 0.9389 -0.0131
vn -0.3439 0.9389 -0.0131
vn -0.2282 0.9682 -0.1024
vn -0.4262 -0.0215 -0.9044
vn 0.4262 -0.0215 -0.9044
vn 0.3412 0.7415 -0.5778
vn -0.3412 0.7415 -0.5778
vn 0.2323 0.7873 0.5711
vn -0.2323 0.7873 0.5711
vn -0.1694 0.8944 0.4140
vn 0.1694 0.8944 0.4140
vn 0.7632 0.6429 0.0647
vn 0.9469 -0.0739 -0.3129
vn -0.7632 0.6429 0.0647
vn -0.8658 0.3861 0.3181
vn -0.9469 -0.0739 -0.3129
vn 0.3090 0.9511 -0.0000
vn 0.8090 0.5878 -0.0000
vn 1.0000 -0.0000 -0.0000
vn 0.8090 -0.5878 -0.0000
vn 0.3090 -0.9511 -0.0000
vn -0.3090 -0.9511 -0.0000
vn -0.8090 -0.5877 -0.0000
vn -1.0000 -0.0000 -0.0000
vn -0.0000 -0.0000 -1.0000
vn -0.8090 0.5877 -0.0000
vn -0.3090 0.9511 -0.0000
vn -0.7036 0.5112 -0.4936
vn -0.8697 -0.0000 -0.4936
vn -0.7036 -0.5112 -0.4936
vn -0.2687 -0.8271 -0.4936
vn 0.2687 -0.8271 -0.4936
vn 0.7036 -0.5112 -0.4936
vn 0.2687 0.8271 -0.4936
vn 0.8697 -0.0000 -0.4936
vn 0.7036 0.5112 -0.4936
vn -0.2687 0.8271 -0.4936
vn 0.2268 0.9642 0.1376
vn 0.5643 0.1833 0.8049
vn 0.5643 -0.1833 0.8049
vn -0.3487 -0.4801 0.8049
vn -0.5643 -0.1834 0.8050
vn -0.0000 0.5934 0.8049
vn 0.3488 0.4800 0.8049
vn -0.5643 0.1834 0.8050
vn -0.3487 0.4801 0.8049
vn 0.3488 -0.4800 0.8049
vn -0.0000 -0.5934 0.8049
vn 0.2886 -0.3972 -0.8712
vn 0.4669 -0.1517 -0.8712
vn 0.2886 0.3972 -0.8712
vn -0.0000 0.4910 -0.8712
vn 0.4669 0.1517 -0.8712
vn -0.2886 0.3972 -0.8712
vn -0.4669 0.1517 -0.8712
vn -0.2886 -0.3972 -0.8712
vn -0.0000 -0.4910 -0.8712
vn -0.4669 -0.1517 -0.8712
vn -0.0000 -0.0000 1.0000
vt 0.792137 0.705901
vt 0.793102 0.690338
vt 0.796991 0.690665
vt 0.796030 0.706157
vt 0.788918 0.704679
vt 0.789838 0.689875
vt 0.746573 0.686101
vt 0.751595 0.673591
vt 0.754953 0.674719
vt 0.749377 0.688522
vt 0.743375 0.683977
vt 0.747741 0.672998
vt 0.740640 0.682717
vt 0.744424 0.673098
vt 0.676451 0.770360
vt 0.675401 0.761153
vt 0.678809 0.761037
vt 0.679954 0.771104
vt 0.672566 0.770767
vt 0.671523 0.761631
vt 0.669341 0.772220
vt 0.668217 0.762343
vt 0.495005 0.716704
vt 0.491149 0.705845
vt 0.494489 0.704818
vt 0.497839 0.714369
vt 0.491729 0.718741
vt 0.487276 0.706331
vt 0.488889 0.719933
vt 0.483904 0.706146
vt 0.800463 0.690769
vt 0.799554 0.705377
vt 0.794669 0.673858
vt 0.798557 0.674211
vt 0.791353 0.673983
vt 0.751097 0.659399
vt 0.754462 0.659535
vt 0.747235 0.659966
vt 0.743910 0.661083
vt 0.673829 0.749204
vt 0.677158 0.748459
vt 0.669955 0.749707
vt 0.666574 0.749833
vt 0.492147 0.692901
vt 0.495456 0.692870
vt 0.488308 0.692226
vt 0.484968 0.691022
vt 0.801971 0.674944
vt 0.796424 0.657246
vt 0.800313 0.657573
vt 0.793073 0.657715
vt 0.746725 0.644144
vt 0.749948 0.643724
vt 0.743023 0.645339
vt 0.739834 0.646988
vt 0.671932 0.734782
vt 0.675222 0.733731
vt 0.668056 0.735260
vt 0.664630 0.735038
vt 0.496936 0.678291
vt 0.500083 0.678811
vt 0.493281 0.676991
vt 0.490097 0.675260
vt 0.803698 0.658610
vt 0.798074 0.640592
vt 0.801968 0.640860
vt 0.794703 0.641261
vt 0.739949 0.628236
vt 0.743057 0.627532
vt 0.736366 0.629724
vt 0.733267 0.631598
vt 0.670033 0.718857
vt 0.673312 0.717706
vt 0.666150 0.719275
vt 0.662700 0.718847
vt 0.504272 0.662633
vt 0.507293 0.663434
vt 0.500746 0.661043
vt 0.497661 0.659088
vt 0.805342 0.641994
vt 0.799337 0.624164
vt 0.803238 0.624337
vt 0.795957 0.624958
vt 0.732136 0.612147
vt 0.735190 0.611325
vt 0.728591 0.613716
vt 0.725504 0.615612
vt 0.668453 0.702259
vt 0.671735 0.701150
vt 0.664560 0.702578
vt 0.661099 0.702023
vt 0.512809 0.646481
vt 0.515769 0.647397
vt 0.509325 0.644809
vt 0.506251 0.642832
vt 0.806616 0.625429
vt 0.799935 0.608438
vt 0.803842 0.608458
vt 0.796553 0.609309
vt 0.724641 0.596435
vt 0.727702 0.595631
vt 0.721047 0.597896
vt 0.717881 0.599623
vt 0.667500 0.685633
vt 0.670792 0.684716
vt 0.663599 0.685795
vt 0.660134 0.685161
vt 0.521191 0.630301
vt 0.524162 0.631201
vt 0.517654 0.628736
vt 0.514497 0.626927
vt 0.807226 0.609364
vt 0.799612 0.594078
vt 0.803511 0.593841
vt 0.796231 0.594989
vt 0.718810 0.581764
vt 0.721941 0.581152
vt 0.715077 0.582853
vt 0.711745 0.584128
vt 0.667497 0.669461
vt 0.670785 0.668961
vt 0.663598 0.669359
vt 0.660133 0.668683
vt 0.528059 0.614457
vt 0.531106 0.615167
vt 0.524372 0.613261
vt 0.521033 0.611899
vt 0.806881 0.594341
vt 0.798236 0.582027
vt 0.802073 0.581324
vt 0.794854 0.582926
vt 0.715881 0.568969
vt 0.719104 0.568849
vt 0.711994 0.569213
vt 0.708484 0.569519
vt 0.668843 0.654007
vt 0.672048 0.654341
vt 0.664992 0.653430
vt 0.661525 0.652765
vt 0.531949 0.599137
vt 0.535103 0.599356
vt 0.528080 0.598781
vt 0.524533 0.598384
vt 0.805334 0.581006
vt 0.795917 0.573101
vt 0.799545 0.571664
vt 0.792512 0.573919
vt 0.716677 0.558785
vt 0.719779 0.559569
vt 0.712989 0.557549
vt 0.709702 0.556194
vt 0.672122 0.639640
vt 0.674998 0.641333
vt 0.668450 0.638326
vt 0.664964 0.637743
vt 0.530973 0.584615
vt 0.534029 0.583928
vt 0.527262 0.585744
vt 0.523893 0.587014
vt 0.802424 0.569992
vt 0.792379 0.566438
vt 0.795657 0.564324
vt 0.788918 0.567145
vt 0.722022 0.550792
vt 0.724531 0.552484
vt 0.719284 0.548103
vt 0.717052 0.545134
vt 0.677669 0.628042
vt 0.679954 0.630989
vt 0.674308 0.626066
vt 0.541748 0.737255
vt 0.541093 0.749780
vt 0.537189 0.749641
vt 0.537850 0.737006
vt 0.523210 0.572324
vt 0.525693 0.570715
vt 0.520420 0.574933
vt 0.518070 0.577842
vt 0.797871 0.561369
vt 0.763892 0.784045
vt 0.763922 0.796757
vt 0.760383 0.796455
vt 0.760352 0.783143
vt 0.767783 0.783857
vt 0.767814 0.796695
vt 0.770984 0.782632
vt 0.771016 0.796283
vt 0.732488 0.541145
vt 0.734097 0.544507
vt 0.731496 0.537437
vt 0.715922 0.542684
vt 0.731385 0.534378
vt 0.536923 0.768540
vt 0.533506 0.768580
vt 0.533762 0.750312
vt 0.540829 0.768549
vt 0.544427 0.750692
vt 0.544177 0.768604
vt 0.506445 0.567107
vt 0.508114 0.563796
vt 0.505329 0.570788
vt 0.516791 0.580272
vt 0.505063 0.573854
vt 0.763891 0.818743
vt 0.760352 0.818822
vt 0.767784 0.818776
vt 0.770985 0.818912
vt 0.754127 0.537354
vt 0.754953 0.540878
vt 0.753989 0.533470
vt 0.754573 0.530267
vt 0.537178 0.793920
vt 0.533758 0.793581
vt 0.541083 0.793834
vt 0.544427 0.793344
vt 0.484164 0.562620
vt 0.485045 0.559126
vt 0.483904 0.566499
vt 0.484336 0.569726
vt 0.209007 0.907151
vt 0.240470 0.908931
vt 0.236053 0.956704
vt 0.205984 0.954499
vt 0.271550 0.912961
vt 0.265849 0.960060
vt 0.256796 0.986860
vt 0.232954 0.989304
vt 0.209887 0.982502
vt 0.735286 0.759240
vt 0.711500 0.762876
vt 0.708484 0.734484
vt 0.739051 0.736223
vt 0.408929 0.596168
vt 0.411710 0.578066
vt 0.434616 0.577957
vt 0.437476 0.603367
vt 0.458582 0.575405
vt 0.466072 0.592923
vt 0.714557 0.705595
vt 0.737793 0.712255
vt 0.184873 0.983826
vt 0.161910 0.991464
vt 0.159071 0.960873
vt 0.188911 0.956838
vt 0.137959 0.988134
vt 0.129039 0.962336
vt 0.123364 0.915348
vt 0.154691 0.913289
vt 0.185916 0.909604
vt 0.314113 0.451184
vt 0.283032 0.447154
vt 0.288722 0.388862
vt 0.320759 0.391274
vt 0.251569 0.445374
vt 0.257052 0.387959
vt 0.263240 0.335262
vt 0.295241 0.331519
vt 0.340278 0.313648
vt 0.763803 0.736370
vt 0.752172 0.765559
vt 0.755371 0.705595
vt 0.511925 0.542053
vt 0.486171 0.529024
vt 0.484451 0.493941
vt 0.511366 0.507132
vt 0.543942 0.539970
vt 0.544807 0.505376
vt 0.433416 0.544858
vt 0.464462 0.549275
vt 0.404642 0.552672
vt 0.403275 0.513276
vt 0.433341 0.504699
vt 0.465772 0.509728
vt 0.131676 0.336392
vt 0.099920 0.334595
vt 0.096545 0.282826
vt 0.126407 0.290661
vt 0.054628 0.314634
vt 0.055080 0.270178
vt 0.104181 0.233642
vt 0.055430 0.224098
vt 0.133007 0.244906
vt 0.143348 0.446760
vt 0.112123 0.450445
vt 0.106433 0.392017
vt 0.137865 0.389212
vt 0.080797 0.452504
vt 0.074149 0.392454
vt 0.149635 0.858316
vt 0.180860 0.854631
vt 0.118309 0.860375
vt 0.112988 0.802521
vt 0.144314 0.800462
vt 0.175539 0.796777
vt 0.138949 0.742125
vt 0.170174 0.738440
vt 0.107622 0.744184
vt 0.102257 0.685849
vt 0.133584 0.683790
vt 0.164808 0.680105
vt 0.128219 0.625453
vt 0.159443 0.621768
vt 0.096892 0.627512
vt 0.091527 0.569176
vt 0.122853 0.567117
vt 0.154078 0.563432
vt 0.117488 0.508781
vt 0.148713 0.505096
vt 0.086162 0.510840
vt 0.433464 0.459636
vt 0.465895 0.464665
vt 0.403398 0.468213
vt 0.403528 0.420788
vt 0.433593 0.412211
vt 0.466025 0.417240
vt 0.433724 0.364390
vt 0.466156 0.369419
vt 0.403659 0.372968
vt 0.403790 0.325148
vt 0.433855 0.316570
vt 0.466286 0.321599
vt 0.433986 0.268750
vt 0.466417 0.273779
vt 0.403920 0.277327
vt 0.404051 0.229507
vt 0.434116 0.220930
vt 0.466548 0.225959
vt 0.434247 0.173109
vt 0.466679 0.178138
vt 0.404182 0.181687
vt 0.404313 0.133867
vt 0.434378 0.125290
vt 0.466809 0.130319
vt 0.511303 0.465565
vt 0.544744 0.463809
vt 0.484388 0.452374
vt 0.484321 0.408629
vt 0.511236 0.421819
vt 0.544677 0.420064
vt 0.511169 0.377709
vt 0.544610 0.375953
vt 0.484254 0.364518
vt 0.484187 0.320408
vt 0.511102 0.333599
vt 0.544543 0.331843
vt 0.511035 0.289489
vt 0.544476 0.287733
vt 0.484120 0.276298
vt 0.484053 0.232188
vt 0.510968 0.245379
vt 0.544409 0.243623
vt 0.510901 0.201269
vt 0.544341 0.199513
vt 0.483985 0.188078
vt 0.483918 0.143968
vt 0.510833 0.157159
vt 0.544274 0.155403
vt 0.245525 0.854086
vt 0.276605 0.858115
vt 0.214062 0.852305
vt 0.219382 0.794584
vt 0.250845 0.796365
vt 0.281926 0.800394
vt 0.256210 0.738162
vt 0.287290 0.742192
vt 0.224747 0.736382
vt 0.230111 0.678181
vt 0.261574 0.679961
vt 0.292655 0.683991
vt 0.266939 0.621759
vt 0.298019 0.625788
vt 0.235476 0.619978
vt 0.240840 0.561777
vt 0.272303 0.563558
vt 0.303384 0.567587
vt 0.277668 0.505356
vt 0.308748 0.509385
vt 0.246205 0.503575
vt 0.544567 0.070884
vt 0.544261 0.111756
vt 0.510840 0.113596
vt 0.511285 0.073318
vt 0.483904 0.100321
vt 0.484211 0.059449
vt 0.771176 0.486903
vt 0.740515 0.479402
vt 0.740643 0.429261
vt 0.771317 0.438019
vt 0.708484 0.484541
vt 0.708625 0.435657
vt 0.708510 0.381766
vt 0.740509 0.373293
vt 0.771202 0.384128
vt 0.511823 0.039259
vt 0.544807 0.035560
vt 0.484451 0.024125
vt 0.741245 0.506836
vt 0.709223 0.513195
vt 0.508969 0.012977
vt 0.541774 0.008536
vt 0.298636 0.279707
vt 0.340069 0.267354
vt 0.268508 0.289638
vt 0.261909 0.243974
vt 0.290981 0.230782
vt 0.339476 0.223309
vt 0.029778 0.292895
vt 0.022126 0.277232
vt 0.271489 0.125440
vt 0.241622 0.124792
vt 0.236002 0.058885
vt 0.265464 0.063595
vt 0.211371 0.126393
vt 0.205984 0.058063
vt 0.215104 0.015244
vt 0.239552 0.008536
vt 0.261938 0.020337
vt 0.265155 0.181449
vt 0.294576 0.174729
vt 0.236583 0.190264
vt 0.771845 0.219786
vt 0.741180 0.210987
vt 0.740558 0.162415
vt 0.771141 0.155335
vt 0.709187 0.221453
vt 0.708484 0.157001
vt 0.709088 0.110215
vt 0.741084 0.118617
vt 0.771745 0.108549
vt 0.130003 0.184180
vt 0.158336 0.191109
vt 0.100335 0.175468
vt 0.123426 0.126099
vt 0.153539 0.127428
vt 0.183551 0.127131
vt 0.410202 0.652282
vt 0.411345 0.629910
vt 0.438812 0.620440
vt 0.431445 0.652617
vt 0.771845 0.016448
vt 0.767564 0.041540
vt 0.744750 0.042595
vt 0.744046 0.008536
vt 0.720571 0.042790
vt 0.714554 0.017971
vt 0.466730 0.639251
vt 0.455632 0.659944
vt 0.516434 0.818989
vt 0.483904 0.814273
vt 0.483904 0.771227
vt 0.515094 0.775792
vt 0.712538 0.070423
vt 0.743180 0.079064
vt 0.484326 0.737006
vt 0.508532 0.745150
vt 0.159122 0.061083
vt 0.188911 0.058435
vt 0.129424 0.063904
vt 0.132816 0.019485
vt 0.155311 0.008536
vt 0.179656 0.014439
vt 0.466730 0.741444
vt 0.433502 0.744431
vt 0.429287 0.699242
vt 0.461255 0.697609
vt 0.708484 0.342774
vt 0.739078 0.333360
vt 0.403275 0.687830
vt 0.465772 0.008536
vt 0.466832 0.080363
vt 0.434455 0.076380
vt 0.434315 0.023114
vt 0.404335 0.083911
vt 0.403275 0.012085
vt 0.444631 0.824240
vt 0.412864 0.822362
vt 0.403275 0.792786
vt 0.436010 0.793603
vt 0.412864 0.762312
vt 0.444631 0.761503
vt 0.643060 0.780163
vt 0.620120 0.780200
vt 0.619938 0.756057
vt 0.636031 0.749282
vt 0.636031 0.809198
vt 0.619938 0.803004
vt 0.770344 0.277229
vt 0.740802 0.277789
vt 0.710370 0.278824
vt 0.739941 0.316287
vt 0.716307 0.308933
vt 0.763300 0.307683
vt 0.008536 0.310783
vt 0.021738 0.321086
vt 0.386202 0.311154
vt 0.373136 0.320349
vt 0.365329 0.290357
vt 0.372748 0.276590
vt 0.671370 0.584388
vt 0.679465 0.008536
vt 0.691411 0.010199
vt 0.683317 0.586050
vt 0.561880 0.714052
vt 0.561880 0.008536
vt 0.571770 0.009035
vt 0.571770 0.714551
vt 0.584015 0.009037
vt 0.584015 0.714553
vt 0.593934 0.008541
vt 0.593934 0.714057
vt 0.788918 0.539761
vt 0.788918 0.008536
vt 0.799051 0.013072
vt 0.799051 0.544297
vt 0.811288 0.012810
vt 0.811288 0.544035
vt 0.611007 0.713127
vt 0.611007 0.009224
vt 0.620965 0.008536
vt 0.620965 0.712440
vt 0.633209 0.008545
vt 0.633209 0.712448
vt 0.586303 0.805165
vt 0.576712 0.801125
vt 0.586305 0.787741
vt 0.643060 0.009247
vt 0.643060 0.713150
vt 0.660133 0.587104
vt 0.668227 0.011252
vt 0.634069 0.732209
vt 0.629715 0.731899
vt 0.624303 0.731895
vt 0.619902 0.732199
vt 0.788918 0.801893
vt 0.795470 0.791777
vt 0.809047 0.801847
vt 0.806151 0.806318
vt 0.788917 0.814095
vt 0.806150 0.811711
vt 0.795469 0.823725
vt 0.809047 0.815967
vt 0.677477 0.606603
vt 0.672196 0.605869
vt 0.580620 0.732306
vt 0.575208 0.732305
vt 0.691411 0.591457
vt 0.681054 0.608993
vt 0.667229 0.607069
vt 0.533877 0.819828
vt 0.533877 0.815939
vt 0.539152 0.818381
vt 0.535291 0.812706
vt 0.537739 0.810993
vt 0.540565 0.811259
vt 0.543013 0.813433
vt 0.544426 0.816934
vt 0.544427 0.820821
vt 0.543014 0.824055
vt 0.540566 0.825768
vt 0.537739 0.825502
vt 0.535291 0.823327
vt 0.585864 0.745987
vt 0.569898 0.745984
vt 0.670365 0.798919
vt 0.670492 0.794118
vt 0.691121 0.789292
vt 0.690745 0.803456
vt 0.809196 0.750379
vt 0.811991 0.754870
vt 0.797167 0.769172
vt 0.788919 0.755921
vt 0.811991 0.740754
vt 0.809195 0.744987
vt 0.788918 0.740014
vt 0.797165 0.727527
vt 0.816515 0.756746
vt 0.810513 0.774705
vt 0.816515 0.739298
vt 0.810513 0.723230
vt 0.660133 0.806687
vt 0.663962 0.806687
vt 0.671857 0.826373
vt 0.660559 0.826373
vt 0.667870 0.803720
vt 0.683387 0.817618
vt 0.584527 0.813914
vt 0.570529 0.808018
vt 0.829452 0.595569
vt 0.831421 0.584973
vt 0.839882 0.584645
vt 0.837010 0.600110
vt 0.595896 0.802548
vt 0.598526 0.810096
vt 0.824298 0.602576
vt 0.829488 0.610335
vt 0.829452 0.574833
vt 0.837009 0.569847
vt 0.824298 0.569024
vt 0.829487 0.561369
vt 0.570785 0.781205
vt 0.570785 0.791973
vt 0.561880 0.794662
vt 0.561880 0.778948
vt 0.586307 0.770318
vt 0.576713 0.772935
vt 0.570532 0.766877
vt 0.584531 0.763059
vt 0.740372 0.789808
vt 0.743279 0.801420
vt 0.725881 0.801420
vt 0.739541 0.813032
vt 0.730586 0.820207
vt 0.719833 0.820207
vt 0.711391 0.813032
vt 0.708484 0.801420
vt 0.712221 0.789808
vt 0.721177 0.782632
vt 0.731930 0.782632
vt 0.595897 0.774356
vt 0.601824 0.783507
vt 0.601824 0.794276
s 1
usemtl Material.001
f 1/1/1 13/2/2 24/3/3 12/4/4
f 2/5/5 14/6/6 13/2/2 1/1/1
f 3/7/7 15/8/8 14/9/6 2/10/5
f 4/11/9 16/12/10 15/8/8 3/7/7
f 5/13/11 17/14/12 16/12/10 4/11/9
f 6/15/13 18/16/14 17/17/12 5/18/11
f 7/19/15 19/20/16 18/16/14 6/15/13
f 8/21/17 20/22/18 19/20/16 7/19/15
f 9/23/19 21/24/20 20/25/18 8/26/17
f 10/27/21 22/28/22 21/24/20 9/23/19
f 11/29/23 23/30/24 22/28/22 10/27/21
f 12/4/4 24/3/3 23/31/24 11/32/23
f 13/2/2 25/33/25 36/34/26 24/3/3
f 14/6/6 26/35/27 25/33/25 13/2/2
f 15/8/8 27/36/28 26/37/27 14/9/6
f 16/12/10 28/38/29 27/36/28 15/8/8
f 17/14/12 29/39/30 28/38/29 16/12/10
f 18/16/14 30/40/31 29/41/30 17/17/12
f 19/20/16 31/42/32 30/40/31 18/16/14
f 20/22/18 32/43/33 31/42/32 19/20/16
f 21/24/20 33/44/34 32/45/33 20/25/18
f 22/28/22 34/46/35 33/44/34 21/24/20
f 23/30/24 35/47/36 34/46/35 22/28/22
f 24/3/3 36/34/26 35/48/36 23/31/24
f 25/33/25 37/49/37 48/50/38 36/34/26
f 26/35/27 38/51/39 37/49/37 25/33/25
f 27/36/28 39/52/40 38/53/39 26/37/27
f 28/38/29 40/54/41 39/52/40 27/36/28
f 29/39/30 41/55/42 40/54/41 28/38/29
f 30/40/31 42/56/43 41/57/42 29/41/30
f 31/42/32 43/58/44 42/56/43 30/40/31
f 32/43/33 44/59/45 43/58/44 31/42/32
f 33/44/34 45/60/46 44/61/45 32/45/33
f 34/46/35 46/62/47 45/60/46 33/44/34
f 35/47/36 47/63/48 46/62/47 34/46/35
f 36/34/26 48/50/38 47/64/48 35/48/36
f 37/49/37 49/65/49 60/66/50 48/50/38
f 38/51/39 50/67/51 49/65/49 37/49/37
f 39/52/40 51/68/52 50/69/51 38/53/39
f 40/54/41 52/70/53 51/68/52 39/52/40
f 41/55/42 53/71/54 52/70/53 40/54/41
f 42/56/43 54/72/55 53/73/54 41/57/42
f 43/58/44 55/74/56 54/72/55 42/56/43
f 44/59/45 56/75/57 55/74/56 43/58/44
f 45/60/46 57/76/58 56/77/57 44/61/45
f 46/62/47 58/78/59 57/76/58 45/60/46
f 47/63/48 59/79/60 58/78/59 46/62/47
f 48/50/38 60/66/50 59/80/60 47/64/48
f 49/65/49 61/81/61 72/82/62 60/66/50
f 50/67/51 62/83/63 61/81/61 49/65/49
f 51/68/52 63/84/64 62/85/63 50/69/51
f 52/70/53 64/86/65 63/84/64 51/68/52
f 53/71/54 65/87/66 64/86/65 52/70/53
f 54/72/55 66/88/67 65/89/66 53/73/54
f 55/74/56 67/90/68 66/88/67 54/72/55
f 56/75/57 68/91/69 67/90/68 55/74/56
f 57/76/58 69/92/70 68/93/69 56/77/57
f 58/78/59 70/94/71 69/92/70 57/76/58
f 59/79/60 71/95/72 70/94/71 58/78/59
f 60/66/50 72/82/62 71/96/72 59/80/60
f 61/81/61 73/97/73 84/98/74 72/82/62
f 62/83/63 74/99/75 73/97/73 61/81/61
f 63/84/64 75/100/76 74/101/75 62/85/63
f 64/86/65 76/102/77 75/100/76 63/84/64
f 65/87/66 77/103/78 76/102/77 64/86/65
f 66/88/67 78/104/79 77/105/78 65/89/66
f 67/90/68 79/106/80 78/104/79 66/88/67
f 68/91/69 80/107/81 79/106/80 67/90/68
f 69/92/70 81/108/82 80/109/81 68/93/69
f 70/94/71 82/110/83 81/108/82 69/92/70
f 71/95/72 83/111/84 82/110/83 70/94/71
f 72/82/62 84/98/74 83/112/84 71/96/72
f 73/97/73 85/113/85 96/114/86 84/98/74
f 74/99/75 86/115/87 85/113/85 73/97/73
f 75/100/76 87/116/88 86/117/87 74/101/75
f 76/102/77 88/118/89 87/116/88 75/100/76
f 77/103/78 89/119/90 88/118/89 76/102/77
f 78/104/79 90/120/91 89/121/90 77/105/78
f 79/106/80 91/122/92 90/120/91 78/104/79
f 80/107/81 92/123/93 91/122/92 79/106/80
f 81/108/82 93/124/94 92/125/93 80/109/81
f 82/110/83 94/126/95 93/124/94 81/108/82
f 83/111/84 95/127/96 94/126/95 82/110/83
f 84/98/74 96/114/86 95/128/96 83/112/84
f 85/113/85 97/129/97 108/130/98 96/114/86
f 86/115/87 98/131/99 97/129/97 85/113/85
f 87/116/88 99/132/100 98/133/99 86/117/87
f 88/118/89 100/134/101 99/132/100 87/116/88
f 89/119/90 101/135/102 100/134/101 88/118/89
f 90/120/91 102/136/103 101/137/102 89/121/90
f 91/122/92 103/138/104 102/136/103 90/120/91
f 92/123/93 104/139/105 103/138/104 91/122/92
f 93/124/94 105/140/106 104/141/105 92/125/93
f 94/126/95 106/142/107 105/140/106 93/124/94
f 95/127/96 107/143/108 106/142/107 94/126/95
f 96/114/86 108/130/98 107/144/108 95/128/96
f 97/129/97 109/145/109 120/146/110 108/130/98
f 98/131/99 110/147/111 109/145/109 97/129/97
f 99/132/100 111/148/112 110/149/111 98/133/99
f 100/134/101 112/150/113 111/148/112 99/132/100
f 101/135/102 113/151/114 112/150/113 100/134/101
f 102/136/103 114/152/115 113/153/114 101/137/102
f 103/138/104 115/154/116 114/152/115 102/136/103
f 104/139/105 116/155/117 115/154/116 103/138/104
f 105/140/106 117/156/118 116/157/117 104/141/105
f 106/142/107 118/158/119 117/156/118 105/140/106
f 107/143/108 119/159/120 118/158/119 106/142/107
f 108/130/98 120/146/110 119/160/120 107/144/108
f 109/145/109 121/161/121 132/162/122 120/146/110
f 110/147/111 122/163/123 121/161/121 109/145/109
f 111/148/112 123/164/124 122/165/123 110/149/111
f 112/150/113 124/166/125 123/164/124 111/148/112
f 113/151/114 125/167/126 124/166/125 112/150/113
f 114/152/115 126/168/127 125/169/126 113/153/114
f 115/154/116 127/170/128 126/168/127 114/152/115
f 116/171/117 128/172/129 127/173/128 115/174/116
f 117/156/118 129/175/130 128/176/129 116/157/117
f 118/158/119 130/177/131 129/175/130 117/156/118
f 119/159/120 131/178/132 130/177/131 118/158/119
f 120/146/110 132/162/122 131/179/132 119/160/120
f 121/180/121 133/181/133 144/182/134 132/183/122
f 122/184/123 134/185/135 133/181/133 121/180/121
f 123/186/124 135/187/136 134/185/135 122/184/123
f 124/166/125 136/188/137 135/189/136 123/164/124
f 125/167/126 137/190/138 136/188/137 124/166/125
f 126/191/127 138/192/139 137/190/138 125/167/126
f 127/173/128 139/193/140 138/194/139 126/195/127
f 128/172/129 140/196/141 139/193/140 127/173/128
f 129/197/130 141/198/142 140/196/141 128/172/129
f 130/177/131 142/199/143 141/200/142 129/175/130
f 131/178/132 143/201/144 142/199/143 130/177/131
f 132/202/122 144/203/134 143/201/144 131/178/132
f 133/181/133 145/204/145 156/205/146 144/182/134
f 134/185/135 146/206/147 145/204/145 133/181/133
f 135/187/136 147/207/148 146/206/147 134/185/135
f 136/188/137 148/208/149 147/209/148 135/189/136
f 137/190/138 149/210/150 148/208/149 136/188/137
f 138/192/139 150/211/151 149/210/150 137/190/138
f 139/193/140 151/212/152 150/213/151 138/194/139
f 140/196/141 152/214/153 151/212/152 139/193/140
f 141/198/142 153/215/154 152/214/153 140/196/141
f 142/199/143 154/216/155 153/217/154 141/200/142
f 143/201/144 155/218/156 154/216/155 142/199/143
f 144/203/134 156/219/146 155/218/156 143/201/144
f 161/220/157 204/221/157 280/222/157 203/223/157
f 204/221/158 162/224/158 205/225/158 280/222/158
f 280/222/159 205/225/159 158/226/160 199/227/161
f 203/223/162 280/222/162 199/227/163 157/228/164
f 157/229/164 199/230/163 281/231/165 200/232/166
f 199/233/161 158/234/160 201/235/167 281/236/168
f 281/236/169 201/235/170 160/237/171 202/238/172
f 200/232/173 281/231/174 202/239/175 159/240/176
f 159/241/176 202/242/175 282/243/177 206/244/177
f 202/242/172 160/245/171 207/246/178 282/243/178
f 282/243/179 207/246/179 164/247/179 208/248/179
f 206/244/180 282/243/180 208/248/180 163/249/180
f 173/250/181 250/251/181 283/252/182 223/253/182
f 250/251/183 172/254/183 215/255/184 283/252/185
f 283/252/185 215/255/184 165/256/186 211/257/186
f 223/253/187 283/252/187 211/257/187 166/258/187
f 157/229/164 200/232/166 284/259/188 203/260/188
f 200/232/173 159/240/176 206/261/189 284/259/189
f 284/262/190 206/263/190 163/264/190 209/265/190
f 203/266/191 284/262/191 209/265/191 161/267/191
f 160/237/171 201/235/170 285/268/192 207/269/192
f 201/235/167 158/234/160 205/270/193 285/268/193
f 285/268/194 205/270/194 162/271/194 210/272/194
f 207/269/195 285/268/195 210/272/195 164/273/195
f 168/274/196 212/275/196 286/276/196 256/277/196
f 212/275/197 167/278/197 255/279/197 286/276/197
f 252/280/198 286/276/198 255/279/198 187/281/198
f 256/277/199 286/276/199 252/280/199 188/282/199
f 180/283/200 238/284/200 287/285/201 217/286/202
f 238/284/203 181/287/203 231/288/204 287/285/204
f 287/285/205 231/288/205 167/278/205 212/275/205
f 217/286/202 287/285/201 212/275/206 168/274/206
f 163/249/207 208/248/207 288/289/207 227/290/207
f 208/248/208 164/247/208 218/291/208 288/289/208
f 288/289/208 218/291/208 184/292/208 235/293/208
f 227/290/207 288/289/207 235/293/207 177/294/207
f 177/294/207 235/293/207 289/295/207 228/296/207
f 235/293/208 184/292/208 234/297/208 289/295/208
f 289/295/208 234/297/208 183/298/208 236/299/208
f 228/296/207 289/295/207 236/299/207 178/300/207
f 178/300/207 236/299/207 290/301/207 229/302/207
f 236/299/208 183/298/208 233/303/208 290/301/208
f 290/301/208 233/303/208 182/304/208 237/305/208
f 229/302/207 290/301/207 237/305/207 179/306/207
f 179/306/207 237/305/207 291/307/207 230/308/207
f 237/305/208 182/304/208 232/309/208 291/307/208
f 291/307/208 232/309/208 181/287/203 238/284/203
f 230/308/207 291/307/207 238/284/200 180/283/200
f 164/273/209 210/272/209 292/310/209 218/311/209
f 210/272/210 162/271/210 216/312/210 292/310/210
f 292/310/210 216/312/210 176/313/210 239/314/210
f 218/311/209 292/310/209 239/314/209 184/315/209
f 184/315/209 239/314/209 293/316/209 234/317/209
f 239/314/210 176/313/210 226/318/210 293/316/210
f 293/316/210 226/318/210 175/319/210 240/320/210
f 234/317/209 293/316/209 240/320/209 183/321/209
f 183/321/209 240/320/209 294/322/209 233/323/209
f 240/320/210 175/319/210 225/324/210 294/322/210
f 294/322/210 225/324/210 174/325/210 241/326/210
f 233/323/209 294/322/209 241/326/209 182/327/209
f 182/327/209 241/326/209 295/328/209 232/329/209
f 241/326/210 174/325/210 224/330/210 295/328/210
f 295/328/210 224/330/210 173/331/210 242/332/210
f 232/329/209 295/328/209 242/332/209 181/333/209
f 161/267/211 209/265/211 296/334/211 219/335/211
f 209/265/212 163/264/212 227/336/212 296/334/212
f 296/334/212 227/336/212 177/337/212 243/338/212
f 219/335/211 296/334/211 243/338/211 169/339/211
f 169/339/211 243/338/211 297/340/211 220/341/211
f 243/338/212 177/337/212 228/342/212 297/340/212
f 297/340/212 228/342/212 178/343/212 244/344/212
f 220/341/211 297/340/211 244/344/211 170/345/211
f 170/345/211 244/344/211 298/346/211 221/347/211
f 244/344/212 178/343/212 229/348/212 298/346/212
f 298/346/212 229/348/212 179/349/212 245/350/212
f 221/347/211 298/346/211 245/350/211 171/351/211
f 171/351/211 245/350/211 299/352/211 222/353/211
f 245/350/212 179/349/212 230/354/212 299/352/212
f 299/352/212 230/354/212 180/355/213 246/356/213
f 222/353/211 299/352/211 246/356/214 172/357/214
f 162/224/215 204/221/215 300/358/215 216/359/215
f 204/221/216 161/220/216 219/360/216 300/358/216
f 300/358/216 219/360/216 169/361/216 247/362/216
f 216/359/215 300/358/215 247/362/215 176/363/215
f 176/363/215 247/362/215 301/364/215 226/365/215
f 247/362/216 169/361/216 220/366/216 301/364/216
f 301/364/216 220/366/216 170/367/216 248/368/216
f 226/365/215 301/364/215 248/368/215 175/369/215
f 175/369/215 248/368/215 302/370/215 225/371/215
f 248/368/216 170/367/216 221/372/216 302/370/216
f 302/370/216 221/372/216 171/373/216 249/374/216
f 225/371/215 302/370/215 249/374/215 174/375/215
f 174/375/215 249/374/215 303/376/215 224/377/215
f 249/374/216 171/373/216 222/378/216 303/376/216
f 303/376/216 222/378/216 172/254/183 250/251/183
f 224/377/215 303/376/215 250/251/181 173/250/181
f 165/379/217 215/380/217 304/381/217 213/382/217
f 215/380/218 172/357/214 246/356/214 304/381/218
f 304/381/219 246/356/213 180/355/213 217/383/219
f 213/382/220 304/381/220 217/383/220 168/384/220
f 185/385/221 253/386/221 305/387/221 264/388/221
f 253/386/222 188/389/222 263/390/222 305/387/222
f 305/387/223 263/390/223 192/391/223 261/392/223
f 264/388/224 305/387/224 261/392/224 189/393/224
f 165/379/225 213/382/225 306/394/225 257/395/225
f 213/382/226 168/384/226 256/396/226 306/394/226
f 306/397/227 256/398/227 188/389/227 253/386/227
f 257/395/228 306/394/228 253/399/228 185/400/228
f 166/258/229 211/257/229 307/401/229 258/402/229
f 211/257/230 165/256/230 257/403/230 307/401/230
f 307/401/231 257/403/231 185/404/231 251/405/231
f 258/402/232 307/401/232 251/405/232 186/406/232
f 255/279/233 319/407/233 278/408/233 187/281/233
f 190/409/234 259/410/234 308/411/234 272/412/234
f 259/410/235 189/413/235 271/414/235 308/411/235
f 308/411/236 271/414/236 193/415/236 267/416/236
f 272/412/237 308/411/237 267/416/237 194/417/237
f 186/406/238 251/405/238 309/418/238 265/419/238
f 251/405/239 185/404/239 264/420/239 309/418/239
f 309/418/240 264/420/240 189/413/240 259/410/240
f 265/419/241 309/418/241 259/410/241 190/409/241
f 187/421/242 254/422/242 310/423/242 266/424/242
f 254/422/243 186/425/243 265/426/243 310/423/243
f 310/423/244 265/426/244 190/427/244 262/428/244
f 266/424/245 310/423/245 262/428/245 191/429/245
f 188/282/246 252/280/246 311/430/246 263/431/246
f 252/280/247 187/281/247 266/432/247 311/430/247
f 311/430/248 266/432/248 191/433/248 260/434/248
f 263/431/249 311/430/249 260/434/249 192/435/249
f 196/436/250 268/437/250 312/438/250 269/439/250
f 268/440/251 195/441/251 270/442/251 312/443/251
f 312/443/252 270/442/252 194/444/252 267/445/252
f 269/439/253 312/438/253 267/446/253 193/447/253
f 191/448/254 262/449/254 313/450/254 273/451/254
f 262/428/255 190/427/255 272/452/255 313/453/255
f 313/453/256 272/452/256 194/444/256 270/442/256
f 273/451/257 313/450/257 270/454/257 195/455/257
f 192/435/258 260/434/258 314/456/258 274/457/258
f 260/434/259 191/433/259 273/458/259 314/456/259
f 314/456/260 273/458/260 195/459/260 268/460/260
f 274/457/261 314/456/261 268/460/261 196/461/261
f 189/462/262 261/463/262 315/464/262 271/465/262
f 261/392/263 192/391/263 274/466/263 315/467/263
f 315/464/264 274/468/264 196/436/264 269/439/264
f 271/465/265 315/464/265 269/439/265 193/447/265
f 167/469/266 231/470/266 316/471/266 214/472/266
f 231/470/267 181/333/267 242/332/267 316/471/267
f 316/471/268 242/332/268 173/331/268 223/473/268
f 214/472/269 316/471/269 223/473/269 166/474/269
f 166/475/270 277/476/270 317/477/270 214/478/270
f 214/478/271 317/477/271 276/479/271 167/480/271
f 317/481/272 275/482/272 197/483/272 276/484/272
f 277/485/273 198/486/273 275/482/273 317/481/273
f 187/421/274 278/487/274 318/488/274 254/422/274
f 254/422/275 318/488/275 279/489/275 186/425/275
f 318/488/276 275/490/276 198/491/276 279/489/276
f 278/487/277 197/492/277 275/490/277 318/488/277
f 197/493/278 278/408/278 319/407/278 276/494/278
f 167/278/279 276/494/279 319/407/279 255/279/279
f 198/495/280 277/496/280 320/497/280 279/498/280
f 186/406/281 279/498/281 320/497/281 258/402/281
f 166/258/282 258/402/282 320/497/282 277/496/282
f 321/499/283 322/500/283 324/501/283 323/502/283
f 323/503/284 324/504/284 326/505/284 325/506/284
f 325/506/285 326/505/285 328/507/285 327/508/285
f 327/508/286 328/507/286 330/509/286 329/510/286
f 329/511/287 330/512/287 332/513/287 331/514/287
f 331/514/288 332/513/288 334/515/288 333/516/288
f 333/517/289 334/518/289 336/519/289 335/520/289
f 335/520/290 336/519/290 338/521/290 337/522/290
f 352/523/291 353/524/291 373/525/291
f 337/522/292 338/521/292 340/526/292 339/527/292
f 339/528/293 340/529/293 322/500/293 321/499/293
f 337/522/294 339/527/294 350/530/294 349/531/294
f 335/520/295 337/522/295 349/531/295 348/532/295
f 333/517/296 335/520/296 348/532/296 347/533/296
f 331/534/297 333/535/297 347/536/297 346/537/297
f 329/538/298 331/534/298 346/537/298 345/539/298
f 327/540/299 329/538/299 345/539/299 344/541/299
f 321/499/300 323/502/300 342/542/300 341/543/300
f 325/506/301 327/508/301 344/544/301 343/545/301
f 323/502/302 325/546/302 343/547/302 342/542/302
f 339/528/303 321/499/303 341/543/303 350/548/303
f 12/549/4 11/550/23 351/551/304
f 11/550/23 10/552/21 351/551/304
f 10/552/21 9/553/19 351/551/304
f 9/553/19 8/554/17 351/551/304
f 8/554/17 7/555/15 351/551/304
f 7/555/15 6/556/13 351/551/304
f 6/556/13 5/557/11 351/551/304
f 5/557/11 4/558/9 351/551/304
f 4/558/9 3/559/7 351/551/304
f 3/559/7 2/560/5 351/551/304
f 2/560/5 1/561/1 351/551/304
f 1/561/1 12/549/4 351/551/304
f 343/545/305 344/544/306 368/562/306 371/563/305
f 347/564/307 348/565/308 366/566/308 365/567/307
f 341/568/309 342/569/310 370/570/310 369/571/309
f 349/572/311 350/573/312 363/574/312 362/575/311
f 342/569/310 343/576/305 371/577/305 370/570/310
f 348/578/308 349/572/311 362/575/311 366/579/308
f 344/580/306 345/581/313 367/582/313 368/583/306
f 350/573/312 341/568/309 369/571/309 363/574/312
f 346/584/314 347/564/307 365/567/307 364/585/314
f 345/581/313 346/584/314 364/585/314 367/582/313
f 353/524/315 352/523/316 362/586/316 363/587/315
f 355/588/317 354/589/318 364/590/318 365/591/317
f 352/523/316 356/592/319 366/593/319 362/586/316
f 356/594/319 355/588/317 365/591/317 366/595/319
f 354/589/318 357/596/320 367/597/320 364/590/318
f 357/596/320 358/598/321 368/599/321 367/597/320
f 360/600/322 359/601/323 369/602/323 370/603/322
f 358/604/321 361/605/324 371/606/324 368/607/321
f 361/605/324 360/600/322 370/603/322 371/606/324
f 359/601/323 353/524/315 363/587/315 369/602/323
f 324/608/325 322/609/325 372/610/325
f 322/609/325 340/611/325 372/610/325
f 340/611/325 338/612/325 372/610/325
f 338/612/325 336/613/325 372/610/325
f 336/613/325 334/614/325 372/610/325
f 334/614/325 332/615/325 372/610/325
f 332/615/325 330/616/325 372/610/325
f 330/616/325 328/617/325 372/610/325
f 328/617/325 326/618/325 372/610/325
f 326/618/325 324/608/325 372/610/325
f 353/524/291 359/601/291 373/525/291
f 359/601/291 360/600/291 373/525/291
f 360/600/291 361/605/291 373/525/291
f 361/605/291 358/604/291 373/525/291
f 358/604/291 357/619/291 373/525/291
f 357/619/291 354/620/291 373/525/291
f 354/620/291 355/621/291 373/525/291
f 355/621/291 356/592/291 373/525/291
f 356/592/291 352/523/291 373/525/291
